<svg width="72" height="62" viewBox="0 0 72 62" fill="none" xmlns="http://www.w3.org/2000/svg">
<path d="M0 10C0 4.47715 4.47715 0 10 0H62C67.5229 0 72 4.47715 72 10V52C72 57.5228 67.5229 62 62 62H10C4.47715 62 0 57.5228 0 52V10Z" fill="#3B82F6"/>
<path d="M33 56.1357C33.9121 56.5892 34.9468 56.828 36 56.828C37.0532 56.828 38.0879 56.5892 39 56.1357L60 45.8024C60.9112 45.3494 61.6681 44.698 62.1946 43.9136C62.7212 43.1292 62.9989 42.2393 63 41.3332V20.6666C62.9989 19.7605 62.7212 18.8707 62.1946 18.0862C61.6681 17.3018 60.9112 16.6504 60 16.1974L39 5.86408C38.0879 5.41061 37.0532 5.17188 36 5.17188C34.9468 5.17188 33.9121 5.41061 33 5.86408L12 16.1974C11.0888 16.6504 10.3319 17.3018 9.80538 18.0862C9.27883 18.8707 9.00108 19.7605 9 20.6666V41.3332C9.00108 42.2393 9.27883 43.1292 9.80538 43.9136C10.3319 44.698 11.0888 45.3494 12 45.8024L33 56.1357Z" stroke="white" stroke-width="2" stroke-linecap="round" stroke-linejoin="round"/>
<path d="M36 56.8333V31" stroke="white" stroke-width="2" stroke-linecap="round" stroke-linejoin="round"/>
<path d="M9.87 18.0833L36 30.9999L62.13 18.0833" stroke="white" stroke-width="2" stroke-linecap="round" stroke-linejoin="round"/>
<path d="M22.5 11.0308L49.5 24.3349" stroke="white" stroke-width="2" stroke-linecap="round" stroke-linejoin="round"/>
</svg>
