<svg width="104" height="22" viewBox="0 0 104 22" fill="none" xmlns="http://www.w3.org/2000/svg">
<g clip-path="url(#clip0_170_414)">
<path d="M9.4375 12.4062C9.4375 12.0742 9.38542 11.7812 9.28125 11.5273C9.18359 11.2669 9.00781 11.0326 8.75391 10.8242C8.50651 10.6159 8.16146 10.4173 7.71875 10.2285C7.28255 10.0397 6.72917 9.84766 6.05859 9.65234C5.35547 9.44401 4.7207 9.21289 4.1543 8.95898C3.58789 8.69857 3.10286 8.40234 2.69922 8.07031C2.29557 7.73828 1.98633 7.35742 1.77148 6.92773C1.55664 6.49805 1.44922 6.00651 1.44922 5.45312C1.44922 4.89974 1.56315 4.38867 1.79102 3.91992C2.01888 3.45117 2.3444 3.04427 2.76758 2.69922C3.19727 2.34766 3.70833 2.07422 4.30078 1.87891C4.89323 1.68359 5.55404 1.58594 6.2832 1.58594C7.35091 1.58594 8.25586 1.79102 8.99805 2.20117C9.74674 2.60482 10.3164 3.13542 10.707 3.79297C11.0977 4.44401 11.293 5.14062 11.293 5.88281H9.41797C9.41797 5.34896 9.30404 4.87695 9.07617 4.4668C8.84831 4.05013 8.50326 3.72461 8.04102 3.49023C7.57878 3.24935 6.99284 3.12891 6.2832 3.12891C5.61263 3.12891 5.05924 3.22982 4.62305 3.43164C4.18685 3.63346 3.86133 3.9069 3.64648 4.25195C3.43815 4.59701 3.33398 4.99089 3.33398 5.43359C3.33398 5.73307 3.39583 6.00651 3.51953 6.25391C3.64974 6.49479 3.84831 6.7194 4.11523 6.92773C4.38867 7.13607 4.73372 7.32812 5.15039 7.50391C5.57357 7.67969 6.07812 7.84896 6.66406 8.01172C7.47135 8.23958 8.16797 8.49349 8.75391 8.77344C9.33984 9.05339 9.82161 9.36914 10.1992 9.7207C10.5833 10.0658 10.8665 10.4596 11.0488 10.9023C11.2376 11.3385 11.332 11.8333 11.332 12.3867C11.332 12.9661 11.2148 13.4902 10.9805 13.959C10.7461 14.4277 10.4108 14.8281 9.97461 15.1602C9.53841 15.4922 9.01432 15.7493 8.40234 15.9316C7.79688 16.1074 7.11979 16.1953 6.37109 16.1953C5.71354 16.1953 5.06576 16.1042 4.42773 15.9219C3.79622 15.7396 3.22005 15.4661 2.69922 15.1016C2.1849 14.737 1.77148 14.2878 1.45898 13.7539C1.15299 13.2135 1 12.5885 1 11.8789H2.875C2.875 12.3672 2.9694 12.7871 3.1582 13.1387C3.34701 13.4837 3.60417 13.7702 3.92969 13.998C4.26172 14.2259 4.63607 14.3952 5.05273 14.5059C5.47591 14.61 5.91536 14.6621 6.37109 14.6621C7.02865 14.6621 7.58529 14.571 8.04102 14.3887C8.49674 14.2064 8.8418 13.946 9.07617 13.6074C9.31706 13.2689 9.4375 12.8685 9.4375 12.4062ZM20.0758 13.5586V5.43359H21.8922V16H20.1637L20.0758 13.5586ZM20.4176 11.332L21.1695 11.3125C21.1695 12.0156 21.0947 12.6667 20.9449 13.2656C20.8017 13.8581 20.5673 14.3724 20.2418 14.8086C19.9163 15.2448 19.4898 15.5866 18.9625 15.834C18.4352 16.0749 17.7939 16.1953 17.0387 16.1953C16.5243 16.1953 16.0523 16.1204 15.6227 15.9707C15.1995 15.821 14.8349 15.5898 14.5289 15.2773C14.2229 14.9648 13.9853 14.5579 13.816 14.0566C13.6533 13.5553 13.5719 12.9531 13.5719 12.25V5.43359H15.3785V12.2695C15.3785 12.7448 15.4306 13.1387 15.5348 13.4512C15.6454 13.7572 15.7919 14.0013 15.9742 14.1836C16.163 14.3594 16.3714 14.4831 16.5992 14.5547C16.8336 14.6263 17.0745 14.6621 17.3219 14.6621C18.0901 14.6621 18.6988 14.5156 19.148 14.2227C19.5973 13.9232 19.9195 13.5228 20.1148 13.0215C20.3167 12.5137 20.4176 11.9505 20.4176 11.332ZM26.6027 7.46484V20.0625H24.7863V5.43359H26.4465L26.6027 7.46484ZM33.7219 10.6289V10.834C33.7219 11.6022 33.6307 12.3151 33.4484 12.9727C33.2661 13.6237 32.9992 14.1901 32.6477 14.6719C32.3026 15.1536 31.8762 15.528 31.3684 15.7949C30.8605 16.0618 30.2779 16.1953 29.6203 16.1953C28.9497 16.1953 28.3573 16.0846 27.843 15.8633C27.3286 15.6419 26.8924 15.3197 26.5344 14.8965C26.1763 14.4733 25.8898 13.9655 25.675 13.373C25.4667 12.7806 25.3234 12.1133 25.2453 11.3711V10.2773C25.3234 9.49609 25.4699 8.79622 25.6848 8.17773C25.8996 7.55924 26.1828 7.0319 26.5344 6.5957C26.8924 6.15299 27.3254 5.81771 27.8332 5.58984C28.341 5.35547 28.927 5.23828 29.591 5.23828C30.2551 5.23828 30.8443 5.36849 31.3586 5.62891C31.8729 5.88281 32.3059 6.2474 32.6574 6.72266C33.009 7.19792 33.2727 7.76758 33.4484 8.43164C33.6307 9.08919 33.7219 9.82161 33.7219 10.6289ZM31.9055 10.834V10.6289C31.9055 10.1016 31.8501 9.60677 31.7395 9.14453C31.6288 8.67578 31.4562 8.26562 31.2219 7.91406C30.994 7.55599 30.701 7.27604 30.343 7.07422C29.9849 6.86589 29.5585 6.76172 29.0637 6.76172C28.6079 6.76172 28.2108 6.83984 27.8723 6.99609C27.5402 7.15234 27.257 7.36393 27.0227 7.63086C26.7883 7.89128 26.5962 8.19076 26.4465 8.5293C26.3033 8.86133 26.1958 9.20638 26.1242 9.56445V12.0938C26.2544 12.5495 26.4367 12.9792 26.6711 13.3828C26.9055 13.7799 27.218 14.1022 27.6086 14.3496C27.9992 14.5905 28.4908 14.7109 29.0832 14.7109C29.5715 14.7109 29.9914 14.61 30.343 14.4082C30.701 14.1999 30.994 13.9167 31.2219 13.5586C31.4562 13.2005 31.6288 12.7904 31.7395 12.3281C31.8501 11.8594 31.9055 11.3613 31.9055 10.834ZM38.1395 1V16H36.323V1H38.1395ZM45.5746 16.1953C44.8389 16.1953 44.1716 16.0716 43.5727 15.8242C42.9802 15.5703 42.4691 15.2155 42.0395 14.7598C41.6163 14.304 41.2908 13.7637 41.0629 13.1387C40.835 12.5137 40.7211 11.8301 40.7211 11.0879V10.6777C40.7211 9.81836 40.848 9.05339 41.102 8.38281C41.3559 7.70573 41.7009 7.13281 42.1371 6.66406C42.5733 6.19531 43.0681 5.84049 43.6215 5.59961C44.1749 5.35872 44.7478 5.23828 45.3402 5.23828C46.0954 5.23828 46.7465 5.36849 47.2934 5.62891C47.8467 5.88932 48.2992 6.25391 48.6508 6.72266C49.0023 7.1849 49.2628 7.73177 49.432 8.36328C49.6013 8.98828 49.6859 9.67188 49.6859 10.4141V11.2246H41.7953V9.75H47.8793V9.61328C47.8533 9.14453 47.7556 8.6888 47.5863 8.24609C47.4236 7.80339 47.1631 7.4388 46.8051 7.15234C46.447 6.86589 45.9587 6.72266 45.3402 6.72266C44.9301 6.72266 44.5525 6.81055 44.2074 6.98633C43.8624 7.1556 43.5661 7.40951 43.3187 7.74805C43.0714 8.08659 42.8793 8.5 42.7426 8.98828C42.6059 9.47656 42.5375 10.0397 42.5375 10.6777V11.0879C42.5375 11.5892 42.6059 12.0612 42.7426 12.5039C42.8858 12.9401 43.0909 13.3242 43.3578 13.6562C43.6312 13.9883 43.96 14.2487 44.3441 14.4375C44.7348 14.6263 45.1775 14.7207 45.6723 14.7207C46.3103 14.7207 46.8506 14.5905 47.2934 14.3301C47.7361 14.0697 48.1234 13.7214 48.4555 13.2852L49.5492 14.1543C49.3214 14.4993 49.0316 14.8281 48.6801 15.1406C48.3285 15.4531 47.8956 15.707 47.3812 15.9023C46.8734 16.0977 46.2712 16.1953 45.5746 16.1953ZM59.7969 12.4062C59.7969 12.0742 59.7448 11.7812 59.6406 11.5273C59.543 11.2669 59.3672 11.0326 59.1133 10.8242C58.8659 10.6159 58.5208 10.4173 58.0781 10.2285C57.6419 10.0397 57.0885 9.84766 56.418 9.65234C55.7148 9.44401 55.0801 9.21289 54.5137 8.95898C53.9473 8.69857 53.4622 8.40234 53.0586 8.07031C52.6549 7.73828 52.3457 7.35742 52.1309 6.92773C51.916 6.49805 51.8086 6.00651 51.8086 5.45312C51.8086 4.89974 51.9225 4.38867 52.1504 3.91992C52.3783 3.45117 52.7038 3.04427 53.127 2.69922C53.5566 2.34766 54.0677 2.07422 54.6602 1.87891C55.2526 1.68359 55.9134 1.58594 56.6426 1.58594C57.7103 1.58594 58.6152 1.79102 59.3574 2.20117C60.1061 2.60482 60.6758 3.13542 61.0664 3.79297C61.457 4.44401 61.6523 5.14062 61.6523 5.88281H59.7773C59.7773 5.34896 59.6634 4.87695 59.4355 4.4668C59.2077 4.05013 58.8626 3.72461 58.4004 3.49023C57.9382 3.24935 57.3522 3.12891 56.6426 3.12891C55.972 3.12891 55.4186 3.22982 54.9824 3.43164C54.5462 3.63346 54.2207 3.9069 54.0059 4.25195C53.7975 4.59701 53.6934 4.99089 53.6934 5.43359C53.6934 5.73307 53.7552 6.00651 53.8789 6.25391C54.0091 6.49479 54.2077 6.7194 54.4746 6.92773C54.748 7.13607 55.0931 7.32812 55.5098 7.50391C55.9329 7.67969 56.4375 7.84896 57.0234 8.01172C57.8307 8.23958 58.5273 8.49349 59.1133 8.77344C59.6992 9.05339 60.181 9.36914 60.5586 9.7207C60.9427 10.0658 61.2259 10.4596 61.4082 10.9023C61.597 11.3385 61.6914 11.8333 61.6914 12.3867C61.6914 12.9661 61.5742 13.4902 61.3398 13.959C61.1055 14.4277 60.7702 14.8281 60.334 15.1602C59.8978 15.4922 59.3737 15.7493 58.7617 15.9316C58.1562 16.1074 57.4792 16.1953 56.7305 16.1953C56.0729 16.1953 55.4251 16.1042 54.7871 15.9219C54.1556 15.7396 53.5794 15.4661 53.0586 15.1016C52.5443 14.737 52.1309 14.2878 51.8184 13.7539C51.5124 13.2135 51.3594 12.5885 51.3594 11.8789H53.2344C53.2344 12.3672 53.3288 12.7871 53.5176 13.1387C53.7064 13.4837 53.9635 13.7702 54.2891 13.998C54.6211 14.2259 54.9954 14.3952 55.4121 14.5059C55.8353 14.61 56.2747 14.6621 56.7305 14.6621C57.388 14.6621 57.9447 14.571 58.4004 14.3887C58.8561 14.2064 59.2012 13.946 59.4355 13.6074C59.6764 13.2689 59.7969 12.8685 59.7969 12.4062ZM68.3941 5.43359V6.82031H62.6813V5.43359H68.3941ZM64.6148 2.86523H66.4215V13.3828C66.4215 13.7409 66.4768 14.0111 66.5875 14.1934C66.6982 14.3757 66.8414 14.4961 67.0172 14.5547C67.193 14.6133 67.3818 14.6426 67.5836 14.6426C67.7333 14.6426 67.8896 14.6296 68.0523 14.6035C68.2216 14.571 68.3486 14.5449 68.4332 14.5254L68.443 16C68.2997 16.0456 68.1109 16.0879 67.8766 16.127C67.6487 16.1725 67.372 16.1953 67.0465 16.1953C66.6038 16.1953 66.1969 16.1074 65.8258 15.9316C65.4547 15.7559 65.1585 15.4629 64.9371 15.0527C64.7223 14.6361 64.6148 14.0762 64.6148 13.373V2.86523ZM69.9895 10.834V10.6094C69.9895 9.84766 70.1001 9.14128 70.3215 8.49023C70.5428 7.83268 70.8619 7.26302 71.2785 6.78125C71.6952 6.29297 72.1997 5.91536 72.7922 5.64844C73.3846 5.375 74.0487 5.23828 74.7844 5.23828C75.5266 5.23828 76.1939 5.375 76.7863 5.64844C77.3853 5.91536 77.8931 6.29297 78.3098 6.78125C78.7329 7.26302 79.0552 7.83268 79.2766 8.49023C79.4979 9.14128 79.6086 9.84766 79.6086 10.6094V10.834C79.6086 11.5957 79.4979 12.3021 79.2766 12.9531C79.0552 13.6042 78.7329 14.1738 78.3098 14.6621C77.8931 15.1439 77.3885 15.5215 76.7961 15.7949C76.2102 16.0618 75.5461 16.1953 74.8039 16.1953C74.0617 16.1953 73.3944 16.0618 72.802 15.7949C72.2095 15.5215 71.7017 15.1439 71.2785 14.6621C70.8619 14.1738 70.5428 13.6042 70.3215 12.9531C70.1001 12.3021 69.9895 11.5957 69.9895 10.834ZM71.7961 10.6094V10.834C71.7961 11.3613 71.8579 11.8594 71.9816 12.3281C72.1053 12.7904 72.2909 13.2005 72.5383 13.5586C72.7922 13.9167 73.1079 14.1999 73.4855 14.4082C73.8632 14.61 74.3026 14.7109 74.8039 14.7109C75.2987 14.7109 75.7316 14.61 76.1027 14.4082C76.4803 14.1999 76.7928 13.9167 77.0402 13.5586C77.2876 13.2005 77.4732 12.7904 77.5969 12.3281C77.7271 11.8594 77.7922 11.3613 77.7922 10.834V10.6094C77.7922 10.0885 77.7271 9.59701 77.5969 9.13477C77.4732 8.66602 77.2844 8.2526 77.0305 7.89453C76.7831 7.52995 76.4706 7.24349 76.093 7.03516C75.7219 6.82682 75.2857 6.72266 74.7844 6.72266C74.2896 6.72266 73.8534 6.82682 73.4758 7.03516C73.1047 7.24349 72.7922 7.52995 72.5383 7.89453C72.2909 8.2526 72.1053 8.66602 71.9816 9.13477C71.8579 9.59701 71.7961 10.0885 71.7961 10.6094ZM86.2527 14.7109C86.6824 14.7109 87.0796 14.623 87.4441 14.4473C87.8087 14.2715 88.1082 14.0306 88.3426 13.7246C88.577 13.4121 88.7104 13.0573 88.743 12.6602H90.4617C90.4292 13.2852 90.2176 13.8678 89.827 14.4082C89.4428 14.9421 88.9383 15.375 88.3133 15.707C87.6883 16.0326 87.0014 16.1953 86.2527 16.1953C85.4585 16.1953 84.7651 16.0553 84.1727 15.7754C83.5867 15.4954 83.0984 15.1113 82.7078 14.623C82.3237 14.1348 82.034 13.5749 81.8387 12.9434C81.6499 12.3053 81.5555 11.6315 81.5555 10.9219V10.5117C81.5555 9.80208 81.6499 9.13151 81.8387 8.5C82.034 7.86198 82.3237 7.29883 82.7078 6.81055C83.0984 6.32227 83.5867 5.93815 84.1727 5.6582C84.7651 5.37826 85.4585 5.23828 86.2527 5.23828C87.0796 5.23828 87.8022 5.40755 88.4207 5.74609C89.0392 6.07812 89.5242 6.53385 89.8758 7.11328C90.2339 7.6862 90.4292 8.33724 90.4617 9.06641H88.743C88.7104 8.63021 88.5867 8.23633 88.3719 7.88477C88.1635 7.5332 87.8771 7.25326 87.5125 7.04492C87.1544 6.83008 86.7345 6.72266 86.2527 6.72266C85.6993 6.72266 85.2339 6.83333 84.8562 7.05469C84.4852 7.26953 84.1889 7.5625 83.9676 7.93359C83.7527 8.29818 83.5965 8.70508 83.4988 9.1543C83.4077 9.59701 83.3621 10.0495 83.3621 10.5117V10.9219C83.3621 11.3841 83.4077 11.8398 83.4988 12.2891C83.59 12.7383 83.743 13.1452 83.9578 13.5098C84.1792 13.8743 84.4754 14.1673 84.8465 14.3887C85.2241 14.6035 85.6928 14.7109 86.2527 14.7109ZM94.4594 1V16H92.643V1H94.4594ZM100.914 5.43359L96.3051 10.3652L93.727 13.041L93.5805 11.1172L95.4262 8.91016L98.7074 5.43359H100.914ZM99.2641 16L95.4945 10.9609L96.432 9.34961L101.393 16H99.2641Z" fill="#F8FAFC"/>
<mask id="mask0_170_414" style="mask-type:luminance" maskUnits="userSpaceOnUse" x="-1" y="0" width="106" height="22">
<path d="M104.209 0H-0.791016V22H104.209V0Z" fill="white"/>
<path d="M9.4375 12.4062C9.4375 12.0742 9.38542 11.7812 9.28125 11.5273C9.18359 11.2669 9.00781 11.0326 8.75391 10.8242C8.50651 10.6159 8.16146 10.4173 7.71875 10.2285C7.28255 10.0397 6.72917 9.84766 6.05859 9.65234C5.35547 9.44401 4.7207 9.21289 4.1543 8.95898C3.58789 8.69857 3.10286 8.40234 2.69922 8.07031C2.29557 7.73828 1.98633 7.35742 1.77148 6.92773C1.55664 6.49805 1.44922 6.00651 1.44922 5.45312C1.44922 4.89974 1.56315 4.38867 1.79102 3.91992C2.01888 3.45117 2.3444 3.04427 2.76758 2.69922C3.19727 2.34766 3.70833 2.07422 4.30078 1.87891C4.89323 1.68359 5.55404 1.58594 6.2832 1.58594C7.35091 1.58594 8.25586 1.79102 8.99805 2.20117C9.74674 2.60482 10.3164 3.13542 10.707 3.79297C11.0977 4.44401 11.293 5.14062 11.293 5.88281H9.41797C9.41797 5.34896 9.30404 4.87695 9.07617 4.4668C8.84831 4.05013 8.50326 3.72461 8.04102 3.49023C7.57878 3.24935 6.99284 3.12891 6.2832 3.12891C5.61263 3.12891 5.05924 3.22982 4.62305 3.43164C4.18685 3.63346 3.86133 3.9069 3.64648 4.25195C3.43815 4.59701 3.33398 4.99089 3.33398 5.43359C3.33398 5.73307 3.39583 6.00651 3.51953 6.25391C3.64974 6.49479 3.84831 6.7194 4.11523 6.92773C4.38867 7.13607 4.73372 7.32812 5.15039 7.50391C5.57357 7.67969 6.07812 7.84896 6.66406 8.01172C7.47135 8.23958 8.16797 8.49349 8.75391 8.77344C9.33984 9.05339 9.82161 9.36914 10.1992 9.7207C10.5833 10.0658 10.8665 10.4596 11.0488 10.9023C11.2376 11.3385 11.332 11.8333 11.332 12.3867C11.332 12.9661 11.2148 13.4902 10.9805 13.959C10.7461 14.4277 10.4108 14.8281 9.97461 15.1602C9.53841 15.4922 9.01432 15.7493 8.40234 15.9316C7.79688 16.1074 7.11979 16.1953 6.37109 16.1953C5.71354 16.1953 5.06576 16.1042 4.42773 15.9219C3.79622 15.7396 3.22005 15.4661 2.69922 15.1016C2.1849 14.737 1.77148 14.2878 1.45898 13.7539C1.15299 13.2135 1 12.5885 1 11.8789H2.875C2.875 12.3672 2.9694 12.7871 3.1582 13.1387C3.34701 13.4837 3.60417 13.7702 3.92969 13.998C4.26172 14.2259 4.63607 14.3952 5.05273 14.5059C5.47591 14.61 5.91536 14.6621 6.37109 14.6621C7.02865 14.6621 7.58529 14.571 8.04102 14.3887C8.49674 14.2064 8.8418 13.946 9.07617 13.6074C9.31706 13.2689 9.4375 12.8685 9.4375 12.4062ZM20.0758 13.5586V5.43359H21.8922V16H20.1637L20.0758 13.5586ZM20.4176 11.332L21.1695 11.3125C21.1695 12.0156 21.0947 12.6667 20.9449 13.2656C20.8017 13.8581 20.5673 14.3724 20.2418 14.8086C19.9163 15.2448 19.4898 15.5866 18.9625 15.834C18.4352 16.0749 17.7939 16.1953 17.0387 16.1953C16.5243 16.1953 16.0523 16.1204 15.6227 15.9707C15.1995 15.821 14.8349 15.5898 14.5289 15.2773C14.2229 14.9648 13.9853 14.5579 13.816 14.0566C13.6533 13.5553 13.5719 12.9531 13.5719 12.25V5.43359H15.3785V12.2695C15.3785 12.7448 15.4306 13.1387 15.5348 13.4512C15.6454 13.7572 15.7919 14.0013 15.9742 14.1836C16.163 14.3594 16.3714 14.4831 16.5992 14.5547C16.8336 14.6263 17.0745 14.6621 17.3219 14.6621C18.0901 14.6621 18.6988 14.5156 19.148 14.2227C19.5973 13.9232 19.9195 13.5228 20.1148 13.0215C20.3167 12.5137 20.4176 11.9505 20.4176 11.332ZM26.6027 7.46484V20.0625H24.7863V5.43359H26.4465L26.6027 7.46484ZM33.7219 10.6289V10.834C33.7219 11.6022 33.6307 12.3151 33.4484 12.9727C33.2661 13.6237 32.9992 14.1901 32.6477 14.6719C32.3026 15.1536 31.8762 15.528 31.3684 15.7949C30.8605 16.0618 30.2779 16.1953 29.6203 16.1953C28.9497 16.1953 28.3573 16.0846 27.843 15.8633C27.3286 15.6419 26.8924 15.3197 26.5344 14.8965C26.1763 14.4733 25.8898 13.9655 25.675 13.373C25.4667 12.7806 25.3234 12.1133 25.2453 11.3711V10.2773C25.3234 9.49609 25.4699 8.79622 25.6848 8.17773C25.8996 7.55924 26.1828 7.0319 26.5344 6.5957C26.8924 6.15299 27.3254 5.81771 27.8332 5.58984C28.341 5.35547 28.927 5.23828 29.591 5.23828C30.2551 5.23828 30.8443 5.36849 31.3586 5.62891C31.8729 5.88281 32.3059 6.2474 32.6574 6.72266C33.009 7.19792 33.2727 7.76758 33.4484 8.43164C33.6307 9.08919 33.7219 9.82161 33.7219 10.6289ZM31.9055 10.834V10.6289C31.9055 10.1016 31.8501 9.60677 31.7395 9.14453C31.6288 8.67578 31.4562 8.26562 31.2219 7.91406C30.994 7.55599 30.701 7.27604 30.343 7.07422C29.9849 6.86589 29.5585 6.76172 29.0637 6.76172C28.6079 6.76172 28.2108 6.83984 27.8723 6.99609C27.5402 7.15234 27.257 7.36393 27.0227 7.63086C26.7883 7.89128 26.5962 8.19076 26.4465 8.5293C26.3033 8.86133 26.1958 9.20638 26.1242 9.56445V12.0938C26.2544 12.5495 26.4367 12.9792 26.6711 13.3828C26.9055 13.7799 27.218 14.1022 27.6086 14.3496C27.9992 14.5905 28.4908 14.7109 29.0832 14.7109C29.5715 14.7109 29.9914 14.61 30.343 14.4082C30.701 14.1999 30.994 13.9167 31.2219 13.5586C31.4562 13.2005 31.6288 12.7904 31.7395 12.3281C31.8501 11.8594 31.9055 11.3613 31.9055 10.834ZM38.1395 1V16H36.323V1H38.1395ZM45.5746 16.1953C44.8389 16.1953 44.1716 16.0716 43.5727 15.8242C42.9802 15.5703 42.4691 15.2155 42.0395 14.7598C41.6163 14.304 41.2908 13.7637 41.0629 13.1387C40.835 12.5137 40.7211 11.8301 40.7211 11.0879V10.6777C40.7211 9.81836 40.848 9.05339 41.102 8.38281C41.3559 7.70573 41.7009 7.13281 42.1371 6.66406C42.5733 6.19531 43.0681 5.84049 43.6215 5.59961C44.1749 5.35872 44.7478 5.23828 45.3402 5.23828C46.0954 5.23828 46.7465 5.36849 47.2934 5.62891C47.8467 5.88932 48.2992 6.25391 48.6508 6.72266C49.0023 7.1849 49.2628 7.73177 49.432 8.36328C49.6013 8.98828 49.6859 9.67188 49.6859 10.4141V11.2246H41.7953V9.75H47.8793V9.61328C47.8533 9.14453 47.7556 8.6888 47.5863 8.24609C47.4236 7.80339 47.1631 7.4388 46.8051 7.15234C46.447 6.86589 45.9587 6.72266 45.3402 6.72266C44.9301 6.72266 44.5525 6.81055 44.2074 6.98633C43.8624 7.1556 43.5661 7.40951 43.3187 7.74805C43.0714 8.08659 42.8793 8.5 42.7426 8.98828C42.6059 9.47656 42.5375 10.0397 42.5375 10.6777V11.0879C42.5375 11.5892 42.6059 12.0612 42.7426 12.5039C42.8858 12.9401 43.0909 13.3242 43.3578 13.6562C43.6312 13.9883 43.96 14.2487 44.3441 14.4375C44.7348 14.6263 45.1775 14.7207 45.6723 14.7207C46.3103 14.7207 46.8506 14.5905 47.2934 14.3301C47.7361 14.0697 48.1234 13.7214 48.4555 13.2852L49.5492 14.1543C49.3214 14.4993 49.0316 14.8281 48.6801 15.1406C48.3285 15.4531 47.8956 15.707 47.3812 15.9023C46.8734 16.0977 46.2712 16.1953 45.5746 16.1953ZM59.7969 12.4062C59.7969 12.0742 59.7448 11.7812 59.6406 11.5273C59.543 11.2669 59.3672 11.0326 59.1133 10.8242C58.8659 10.6159 58.5208 10.4173 58.0781 10.2285C57.6419 10.0397 57.0885 9.84766 56.418 9.65234C55.7148 9.44401 55.0801 9.21289 54.5137 8.95898C53.9473 8.69857 53.4622 8.40234 53.0586 8.07031C52.6549 7.73828 52.3457 7.35742 52.1309 6.92773C51.916 6.49805 51.8086 6.00651 51.8086 5.45312C51.8086 4.89974 51.9225 4.38867 52.1504 3.91992C52.3783 3.45117 52.7038 3.04427 53.127 2.69922C53.5566 2.34766 54.0677 2.07422 54.6602 1.87891C55.2526 1.68359 55.9134 1.58594 56.6426 1.58594C57.7103 1.58594 58.6152 1.79102 59.3574 2.20117C60.1061 2.60482 60.6758 3.13542 61.0664 3.79297C61.457 4.44401 61.6523 5.14062 61.6523 5.88281H59.7773C59.7773 5.34896 59.6634 4.87695 59.4355 4.4668C59.2077 4.05013 58.8626 3.72461 58.4004 3.49023C57.9382 3.24935 57.3522 3.12891 56.6426 3.12891C55.972 3.12891 55.4186 3.22982 54.9824 3.43164C54.5462 3.63346 54.2207 3.9069 54.0059 4.25195C53.7975 4.59701 53.6934 4.99089 53.6934 5.43359C53.6934 5.73307 53.7552 6.00651 53.8789 6.25391C54.0091 6.49479 54.2077 6.7194 54.4746 6.92773C54.748 7.13607 55.0931 7.32812 55.5098 7.50391C55.9329 7.67969 56.4375 7.84896 57.0234 8.01172C57.8307 8.23958 58.5273 8.49349 59.1133 8.77344C59.6992 9.05339 60.181 9.36914 60.5586 9.7207C60.9427 10.0658 61.2259 10.4596 61.4082 10.9023C61.597 11.3385 61.6914 11.8333 61.6914 12.3867C61.6914 12.9661 61.5742 13.4902 61.3398 13.959C61.1055 14.4277 60.7702 14.8281 60.334 15.1602C59.8978 15.4922 59.3737 15.7493 58.7617 15.9316C58.1562 16.1074 57.4792 16.1953 56.7305 16.1953C56.0729 16.1953 55.4251 16.1042 54.7871 15.9219C54.1556 15.7396 53.5794 15.4661 53.0586 15.1016C52.5443 14.737 52.1309 14.2878 51.8184 13.7539C51.5124 13.2135 51.3594 12.5885 51.3594 11.8789H53.2344C53.2344 12.3672 53.3288 12.7871 53.5176 13.1387C53.7064 13.4837 53.9635 13.7702 54.2891 13.998C54.6211 14.2259 54.9954 14.3952 55.4121 14.5059C55.8353 14.61 56.2747 14.6621 56.7305 14.6621C57.388 14.6621 57.9447 14.571 58.4004 14.3887C58.8561 14.2064 59.2012 13.946 59.4355 13.6074C59.6764 13.2689 59.7969 12.8685 59.7969 12.4062ZM68.3941 5.43359V6.82031H62.6813V5.43359H68.3941ZM64.6148 2.86523H66.4215V13.3828C66.4215 13.7409 66.4768 14.0111 66.5875 14.1934C66.6982 14.3757 66.8414 14.4961 67.0172 14.5547C67.193 14.6133 67.3818 14.6426 67.5836 14.6426C67.7333 14.6426 67.8896 14.6296 68.0523 14.6035C68.2216 14.571 68.3486 14.5449 68.4332 14.5254L68.443 16C68.2997 16.0456 68.1109 16.0879 67.8766 16.127C67.6487 16.1725 67.372 16.1953 67.0465 16.1953C66.6038 16.1953 66.1969 16.1074 65.8258 15.9316C65.4547 15.7559 65.1585 15.4629 64.9371 15.0527C64.7223 14.6361 64.6148 14.0762 64.6148 13.373V2.86523ZM69.9895 10.834V10.6094C69.9895 9.84766 70.1001 9.14128 70.3215 8.49023C70.5428 7.83268 70.8619 7.26302 71.2785 6.78125C71.6952 6.29297 72.1997 5.91536 72.7922 5.64844C73.3846 5.375 74.0487 5.23828 74.7844 5.23828C75.5266 5.23828 76.1939 5.375 76.7863 5.64844C77.3853 5.91536 77.8931 6.29297 78.3098 6.78125C78.7329 7.26302 79.0552 7.83268 79.2766 8.49023C79.4979 9.14128 79.6086 9.84766 79.6086 10.6094V10.834C79.6086 11.5957 79.4979 12.3021 79.2766 12.9531C79.0552 13.6042 78.7329 14.1738 78.3098 14.6621C77.8931 15.1439 77.3885 15.5215 76.7961 15.7949C76.2102 16.0618 75.5461 16.1953 74.8039 16.1953C74.0617 16.1953 73.3944 16.0618 72.802 15.7949C72.2095 15.5215 71.7017 15.1439 71.2785 14.6621C70.8619 14.1738 70.5428 13.6042 70.3215 12.9531C70.1001 12.3021 69.9895 11.5957 69.9895 10.834ZM71.7961 10.6094V10.834C71.7961 11.3613 71.8579 11.8594 71.9816 12.3281C72.1053 12.7904 72.2909 13.2005 72.5383 13.5586C72.7922 13.9167 73.1079 14.1999 73.4855 14.4082C73.8632 14.61 74.3026 14.7109 74.8039 14.7109C75.2987 14.7109 75.7316 14.61 76.1027 14.4082C76.4803 14.1999 76.7928 13.9167 77.0402 13.5586C77.2876 13.2005 77.4732 12.7904 77.5969 12.3281C77.7271 11.8594 77.7922 11.3613 77.7922 10.834V10.6094C77.7922 10.0885 77.7271 9.59701 77.5969 9.13477C77.4732 8.66602 77.2844 8.2526 77.0305 7.89453C76.7831 7.52995 76.4706 7.24349 76.093 7.03516C75.7219 6.82682 75.2857 6.72266 74.7844 6.72266C74.2896 6.72266 73.8534 6.82682 73.4758 7.03516C73.1047 7.24349 72.7922 7.52995 72.5383 7.89453C72.2909 8.2526 72.1053 8.66602 71.9816 9.13477C71.8579 9.59701 71.7961 10.0885 71.7961 10.6094ZM86.2527 14.7109C86.6824 14.7109 87.0796 14.623 87.4441 14.4473C87.8087 14.2715 88.1082 14.0306 88.3426 13.7246C88.577 13.4121 88.7104 13.0573 88.743 12.6602H90.4617C90.4292 13.2852 90.2176 13.8678 89.827 14.4082C89.4428 14.9421 88.9383 15.375 88.3133 15.707C87.6883 16.0326 87.0014 16.1953 86.2527 16.1953C85.4585 16.1953 84.7651 16.0553 84.1727 15.7754C83.5867 15.4954 83.0984 15.1113 82.7078 14.623C82.3237 14.1348 82.034 13.5749 81.8387 12.9434C81.6499 12.3053 81.5555 11.6315 81.5555 10.9219V10.5117C81.5555 9.80208 81.6499 9.13151 81.8387 8.5C82.034 7.86198 82.3237 7.29883 82.7078 6.81055C83.0984 6.32227 83.5867 5.93815 84.1727 5.6582C84.7651 5.37826 85.4585 5.23828 86.2527 5.23828C87.0796 5.23828 87.8022 5.40755 88.4207 5.74609C89.0392 6.07812 89.5242 6.53385 89.8758 7.11328C90.2339 7.6862 90.4292 8.33724 90.4617 9.06641H88.743C88.7104 8.63021 88.5867 8.23633 88.3719 7.88477C88.1635 7.5332 87.8771 7.25326 87.5125 7.04492C87.1544 6.83008 86.7345 6.72266 86.2527 6.72266C85.6993 6.72266 85.2339 6.83333 84.8562 7.05469C84.4852 7.26953 84.1889 7.5625 83.9676 7.93359C83.7527 8.29818 83.5965 8.70508 83.4988 9.1543C83.4077 9.59701 83.3621 10.0495 83.3621 10.5117V10.9219C83.3621 11.3841 83.4077 11.8398 83.4988 12.2891C83.59 12.7383 83.743 13.1452 83.9578 13.5098C84.1792 13.8743 84.4754 14.1673 84.8465 14.3887C85.2241 14.6035 85.6928 14.7109 86.2527 14.7109ZM94.4594 1V16H92.643V1H94.4594ZM100.914 5.43359L96.3051 10.3652L93.727 13.041L93.5805 11.1172L95.4262 8.91016L98.7074 5.43359H100.914ZM99.2641 16L95.4945 10.9609L96.432 9.34961L101.393 16H99.2641Z" fill="black"/>
</mask>
<g mask="url(#mask0_170_414)">
<path d="M9.28125 11.5273L8.34492 11.8785L8.35028 11.8928L8.35608 11.9069L9.28125 11.5273ZM8.75391 10.8242L8.10972 11.5892L8.11959 11.5973L8.75391 10.8242ZM7.71875 10.2285L7.32152 11.1463L7.32646 11.1484L7.71875 10.2285ZM6.05859 9.65234L5.7745 10.6112L5.77895 10.6124L6.05859 9.65234ZM4.1543 8.95898L3.73654 9.8676L3.74524 9.87149L4.1543 8.95898ZM2.76758 2.69922L3.39952 3.47424L3.40082 3.47318L2.76758 2.69922ZM8.99805 2.20117L8.51433 3.07646L8.52349 3.0814L8.99805 2.20117ZM10.707 3.79297L9.84729 4.30371L9.84954 4.30746L10.707 3.79297ZM11.293 5.88281V6.88281H12.293V5.88281H11.293ZM9.41797 5.88281H8.41797V6.88281H9.41797V5.88281ZM9.07617 4.4668L8.19878 4.94662L8.20201 4.95244L9.07617 4.4668ZM8.04102 3.49023L7.57885 4.3771L7.58878 4.38214L8.04102 3.49023ZM3.64648 4.25195L2.79751 3.72334L2.79042 3.73508L3.64648 4.25195ZM3.51953 6.25391L2.6251 6.70112L2.63224 6.71539L2.63982 6.72942L3.51953 6.25391ZM4.11523 6.92773L3.49992 7.7161L3.50919 7.72317L4.11523 6.92773ZM5.15039 7.50391L4.76168 8.42529L4.76678 8.4274L5.15039 7.50391ZM6.66406 8.01172L6.93571 7.04931L6.93171 7.0482L6.66406 8.01172ZM10.1992 9.7207L9.5178 10.4526L9.52432 10.4587L9.53095 10.4646L10.1992 9.7207ZM11.0488 10.9023L10.1242 11.2831L10.1276 11.2914L10.1311 11.2996L11.0488 10.9023ZM8.40234 15.9316L8.68116 16.892L8.68782 16.89L8.40234 15.9316ZM4.42773 15.9219L4.1504 16.8827L4.15301 16.8834L4.42773 15.9219ZM2.69922 15.1016L2.1209 15.9174L2.12576 15.9208L2.69922 15.1016ZM1.45898 13.7539L0.588812 14.2467L0.592347 14.2529L0.59597 14.2591L1.45898 13.7539ZM1 11.8789V10.8789H0V11.8789H1ZM2.875 11.8789H3.875V10.8789H2.875V11.8789ZM3.1582 13.1387L2.27718 13.6118L2.28094 13.6187L3.1582 13.1387ZM3.92969 13.998L3.3562 14.8173L3.36385 14.8226L3.92969 13.998ZM5.05273 14.5059L4.79601 15.4723L4.80484 15.4747L4.81372 15.4769L5.05273 14.5059ZM9.07617 13.6074L8.26131 13.0276L8.25398 13.0382L9.07617 13.6074ZM9.4375 12.4062H10.4375C10.4375 11.9707 10.3692 11.5446 10.2064 11.1478L9.28125 11.5273L8.35608 11.9069C8.40164 12.0179 8.4375 12.1778 8.4375 12.4062H9.4375ZM9.28125 11.5273L10.2176 11.1762C10.0478 10.7234 9.75341 10.3508 9.38822 10.0511L8.75391 10.8242L8.11959 11.5973C8.26221 11.7143 8.31941 11.8104 8.34492 11.8785L9.28125 11.5273ZM8.75391 10.8242L9.39804 10.0593C9.04757 9.76418 8.60499 9.51933 8.11104 9.30867L7.71875 10.2285L7.32646 11.1484C7.71792 11.3153 7.9654 11.4677 8.10972 11.5892L8.75391 10.8242ZM7.71875 10.2285L8.11597 9.31079C7.6283 9.09971 7.03213 8.89434 6.33824 8.69224L6.05859 9.65234L5.77895 10.6124C6.4262 10.801 6.9368 10.9798 7.32152 11.1463L7.71875 10.2285ZM6.05859 9.65234L6.34268 8.69355C5.67478 8.49565 5.08269 8.27928 4.56335 8.04647L4.1543 8.95898L3.74524 9.87149C4.35872 10.1465 5.03614 10.3925 5.7745 10.6112L6.05859 9.65234ZM4.1543 8.95898L4.57203 8.05042C4.06918 7.81922 3.66049 7.56618 3.33449 7.29802L2.69922 8.07031L2.06395 8.8426C2.54524 9.23851 3.10658 9.57797 3.73654 9.8676L4.1543 8.95898ZM2.69922 8.07031L3.33449 7.29802C3.02943 7.04708 2.81275 6.77421 2.66591 6.48052L1.77148 6.92773L0.877057 7.37495C1.1599 7.94064 1.56172 8.42948 2.06395 8.8426L2.69922 8.07031ZM1.77148 6.92773L2.66591 6.48052C2.53034 6.20938 2.44922 5.8749 2.44922 5.45312H1.44922H0.449219C0.449219 6.13812 0.582937 6.78671 0.877057 7.37495L1.77148 6.92773ZM1.44922 5.45312H2.44922C2.44922 5.04164 2.5328 4.68128 2.69038 4.35711L1.79102 3.91992L0.891648 3.48273C0.593499 4.09607 0.449219 4.75784 0.449219 5.45312H1.44922ZM1.79102 3.91992L2.69038 4.35711C2.85168 4.0253 3.08348 3.73193 3.39952 3.47424L2.76758 2.69922L2.13564 1.9242C1.60532 2.35661 1.18608 2.87705 0.891648 3.48273L1.79102 3.91992ZM2.76758 2.69922L3.40082 3.47318C3.72447 3.20837 4.1237 2.99022 4.61388 2.82863L4.30078 1.87891L3.98769 0.929184C3.29297 1.15821 2.67006 1.48694 2.13434 1.92526L2.76758 2.69922ZM4.30078 1.87891L4.61388 2.82863C5.08989 2.6717 5.64287 2.58594 6.2832 2.58594V1.58594V0.585938C5.4652 0.585938 4.69657 0.695486 3.98769 0.929184L4.30078 1.87891ZM6.2832 1.58594V2.58594C7.22478 2.58594 7.95382 2.76671 8.51433 3.07646L8.99805 2.20117L9.48173 1.32593C8.55787 0.815374 7.47704 0.585938 6.2832 0.585938V1.58594ZM8.99805 2.20117L8.52349 3.0814C9.13106 3.40896 9.55932 3.81897 9.84729 4.30371L10.707 3.79297L11.5668 3.28223C11.0735 2.45188 10.3624 1.80068 9.4726 1.32095L8.99805 2.20117ZM10.707 3.79297L9.84954 4.30746C10.1492 4.80684 10.293 5.3262 10.293 5.88281H11.293H12.293C12.293 4.95505 12.0461 4.08118 11.5645 3.27847L10.707 3.79297ZM11.293 5.88281V4.88281H9.41797V5.88281V6.88281H11.293V5.88281ZM9.41797 5.88281H10.418C10.418 5.20276 10.2715 4.55933 9.95033 3.98115L9.07617 4.4668L8.20201 4.95244C8.33654 5.19458 8.41797 5.49516 8.41797 5.88281H9.41797ZM9.07617 4.4668L9.95354 3.98698C9.61995 3.37698 9.11834 2.91528 8.49325 2.59833L8.04102 3.49023L7.58878 4.38214C7.88818 4.53394 8.07665 4.72329 8.19878 4.94662L9.07617 4.4668ZM8.04102 3.49023L8.50315 2.60343C7.8561 2.26623 7.09839 2.12891 6.2832 2.12891V3.12891V4.12891C6.88729 4.12891 7.30142 4.23253 7.57885 4.3771L8.04102 3.49023ZM6.2832 3.12891V2.12891C5.52125 2.12891 4.81221 2.24227 4.20313 2.52408L4.62305 3.43164L5.04296 4.3392C5.30628 4.21737 5.70401 4.12891 6.2832 4.12891V3.12891ZM4.62305 3.43164L4.20313 2.52408C3.6229 2.79254 3.13295 3.1846 2.79751 3.72334L3.64648 4.25195L4.49538 4.78051C4.58962 4.62915 4.75079 4.47439 5.04296 4.3392L4.62305 3.43164ZM3.64648 4.25195L2.79042 3.73508C2.4788 4.2512 2.33398 4.82719 2.33398 5.43359H3.33398H4.33398C4.33398 5.15458 4.3975 4.94281 4.50255 4.76882L3.64648 4.25195ZM3.33398 5.43359H2.33398C2.33398 5.87522 2.42635 6.30361 2.6251 6.70112L3.51953 6.25391L4.41396 5.80669C4.36532 5.70941 4.33398 5.59093 4.33398 5.43359H3.33398ZM3.51953 6.25391L2.63982 6.72942C2.84923 7.11682 3.14923 7.44239 3.49992 7.7161L4.11523 6.92773L4.73051 6.13942C4.54734 5.99646 4.45025 5.87277 4.39924 5.77839L3.51953 6.25391ZM4.11523 6.92773L3.50919 7.72317C3.86668 7.99554 4.29037 8.22646 4.76168 8.42529L5.15039 7.50391L5.53909 6.58254C5.17706 6.42981 4.91067 6.2766 4.72128 6.1323L4.11523 6.92773ZM5.15039 7.50391L4.76678 8.4274C5.23767 8.623 5.78294 8.80483 6.39642 8.97524L6.66406 8.01172L6.93171 7.0482C6.37331 6.89309 5.90947 6.73637 5.534 6.58041L5.15039 7.50391ZM6.66406 8.01172L6.39242 8.97412C7.15986 9.19073 7.80052 9.4262 8.32281 9.67574L8.75391 8.77344L9.18501 7.87113C8.53542 7.56077 7.78285 7.28842 6.93571 7.04931L6.66406 8.01172ZM8.75391 8.77344L8.32281 9.67574C8.83971 9.9227 9.23083 10.1854 9.5178 10.4526L10.1992 9.7207L10.8806 8.98881C10.4124 8.55287 9.83998 8.18407 9.18501 7.87113L8.75391 8.77344ZM10.1992 9.7207L9.53095 10.4646C9.81235 10.7174 10.0034 10.9898 10.1242 11.2831L11.0488 10.9023L11.9735 10.5216C11.7297 9.92945 11.3543 9.4141 10.8675 8.97678L10.1992 9.7207ZM11.0488 10.9023L10.1311 11.2996C10.2575 11.5915 10.332 11.9478 10.332 12.3867H11.332H12.332C12.332 11.7189 12.2178 11.0856 11.9665 10.5051L11.0488 10.9023ZM11.332 12.3867H10.332C10.332 12.8275 10.2439 13.196 10.086 13.5118L10.9805 13.959L11.8749 14.4062C12.1858 13.7844 12.332 13.1048 12.332 12.3867H11.332ZM10.9805 13.959L10.086 13.5118C9.92318 13.8375 9.68926 14.1206 9.36892 14.3645L9.97461 15.1602L10.5803 15.9559C11.1324 15.5356 11.569 15.018 11.8749 14.4062L10.9805 13.959ZM9.97461 15.1602L9.36892 14.3645C9.04319 14.6124 8.63191 14.8198 8.11687 14.9733L8.40234 15.9316L8.68782 16.89C9.39674 16.6789 10.0336 16.372 10.5803 15.9559L9.97461 15.1602ZM8.40234 15.9316L8.12353 14.9713C7.62376 15.1164 7.04257 15.1953 6.37109 15.1953V16.1953V17.1953C7.19701 17.1953 7.97 17.0985 8.68116 16.892L8.40234 15.9316ZM6.37109 16.1953V15.1953C5.80731 15.1953 5.25196 15.1174 4.70246 14.9604L4.42773 15.9219L4.15301 16.8834C4.87955 17.091 5.61977 17.1953 6.37109 17.1953V16.1953ZM4.42773 15.9219L4.70507 14.9611C4.17576 14.8083 3.70023 14.5816 3.27268 14.2823L2.69922 15.1016L2.12576 15.9208C2.73987 16.3507 3.41669 16.671 4.1504 16.8827L4.42773 15.9219ZM2.69922 15.1016L3.27752 14.2857C2.87681 14.0017 2.56134 13.6576 2.322 13.2487L1.45898 13.7539L0.59597 14.2591C0.981634 14.9179 1.49298 15.4723 2.1209 15.9174L2.69922 15.1016ZM1.45898 13.7539L2.32916 13.2612C2.11979 12.8914 2 12.4408 2 11.8789H1H0C0 12.7362 0.186196 13.5357 0.588812 14.2467L1.45898 13.7539ZM1 11.8789V12.8789H2.875V11.8789V10.8789H1V11.8789ZM2.875 11.8789H1.875C1.875 12.4958 1.99464 13.0857 2.27718 13.6118L3.1582 13.1387L4.0392 12.6655C3.94414 12.4885 3.875 12.2386 3.875 11.8789H2.875ZM3.1582 13.1387L2.28094 13.6187C2.54435 14.1001 2.906 14.5021 3.3562 14.8173L3.92969 13.998L4.50315 13.1788C4.3023 13.0382 4.14966 12.8674 4.03547 12.6587L3.1582 13.1387ZM3.92969 13.998L3.36385 14.8226C3.7965 15.1195 4.27678 15.3344 4.79601 15.4723L5.05273 14.5059L5.30946 13.5394C4.99536 13.4559 4.72694 13.3323 4.49553 13.1735L3.92969 13.998ZM5.05273 14.5059L4.81372 15.4769C5.3186 15.6012 5.83849 15.6621 6.37109 15.6621V14.6621V13.6621C5.99223 13.6621 5.63322 13.6189 5.29175 13.5348L5.05273 14.5059ZM6.37109 14.6621V15.6621C7.11516 15.6621 7.80588 15.5598 8.41241 15.3172L8.04102 14.3887L7.66962 13.4602C7.36469 13.5822 6.94213 13.6621 6.37109 13.6621V14.6621ZM8.04102 14.3887L8.41241 15.3172C9.01483 15.0762 9.53226 14.7054 9.89836 14.1766L9.07617 13.6074L8.25398 13.0382C8.15133 13.1865 7.97866 13.3366 7.66962 13.4602L8.04102 14.3887ZM9.07617 13.6074L9.89096 14.1872C10.2658 13.6604 10.4375 13.0518 10.4375 12.4062H9.4375H8.4375C8.4375 12.6851 8.36829 12.8772 8.26131 13.0276L9.07617 13.6074ZM20.0758 13.5586H19.0758V13.5766L19.0764 13.5946L20.0758 13.5586ZM20.0758 5.43359V4.43359H19.0758V5.43359H20.0758ZM21.8922 5.43359H22.8922V4.43359H21.8922V5.43359ZM21.8922 16V17H22.8922V16H21.8922ZM20.1637 16L19.1643 16.036L19.199 17H20.1637V16ZM20.4176 11.332L20.3916 10.3324L19.4176 10.3577V11.332H20.4176ZM21.1695 11.3125H22.1695V10.2862L21.1436 10.3128L21.1695 11.3125ZM20.9449 13.2656L19.9748 13.0231L19.9729 13.0306L20.9449 13.2656ZM18.9625 15.834L19.378 16.7436L19.3872 16.7393L18.9625 15.834ZM15.6227 15.9707L15.2891 16.9134L15.2936 16.915L15.6227 15.9707ZM13.816 14.0566L12.8648 14.3655L12.8686 14.3766L13.816 14.0566ZM13.5719 5.43359V4.43359H12.5719V5.43359H13.5719ZM15.3785 5.43359H16.3785V4.43359H15.3785V5.43359ZM15.5348 13.4512L14.5861 13.7674L14.5901 13.7794L14.5944 13.7913L15.5348 13.4512ZM15.9742 14.1836L15.2671 14.8907L15.2797 14.9033L15.2928 14.9155L15.9742 14.1836ZM16.5992 14.5547L16.2994 15.5087L16.307 15.511L16.5992 14.5547ZM19.148 14.2227L19.6943 15.0603L19.7027 15.0547L19.148 14.2227ZM20.1148 13.0215L19.1855 12.6521L19.1831 12.6585L20.1148 13.0215ZM20.0758 13.5586H21.0758V5.43359H20.0758H19.0758V13.5586H20.0758ZM20.0758 5.43359V6.43359H21.8922V5.43359V4.43359H20.0758V5.43359ZM21.8922 5.43359H20.8922V16H21.8922H22.8922V5.43359H21.8922ZM21.8922 16V15H20.1637V16V17H21.8922V16ZM20.1637 16L21.163 15.964L21.0751 13.5226L20.0758 13.5586L19.0764 13.5946L19.1643 16.036L20.1637 16ZM20.4176 11.332L20.4435 12.3317L21.1955 12.3122L21.1695 11.3125L21.1436 10.3128L20.3916 10.3324L20.4176 11.332ZM21.1695 11.3125H20.1695C20.1695 11.9449 20.1022 12.5135 19.9748 13.0231L20.9449 13.2656L21.9151 13.5082C22.0872 12.8198 22.1695 12.0863 22.1695 11.3125H21.1695ZM20.9449 13.2656L19.9729 13.0306C19.8576 13.5075 19.6759 13.8949 19.4404 14.2105L20.2418 14.8086L21.0432 15.4067C21.4587 14.8499 21.7458 14.2086 21.9169 13.5006L20.9449 13.2656ZM20.2418 14.8086L19.4404 14.2105C19.2201 14.5057 18.9269 14.7461 18.5378 14.9287L18.9625 15.834L19.3872 16.7393C20.0527 16.4271 20.6125 15.9839 21.0432 15.4067L20.2418 14.8086ZM18.9625 15.834L18.547 14.9244C18.1832 15.0906 17.6921 15.1953 17.0387 15.1953V16.1953V17.1953C17.8957 17.1953 18.6871 17.0592 19.378 16.7436L18.9625 15.834ZM17.0387 16.1953V15.1953C16.622 15.1953 16.2628 15.1348 15.9517 15.0264L15.6227 15.9707L15.2936 16.915C15.8419 17.1061 16.4267 17.1953 17.0387 17.1953V16.1953ZM15.6227 15.9707L15.9562 15.028C15.673 14.9278 15.4398 14.7783 15.2434 14.5777L14.5289 15.2773L13.8144 15.977C14.23 16.4014 14.726 16.7142 15.2891 16.9134L15.6227 15.9707ZM14.5289 15.2773L15.2434 14.5777C15.0624 14.3928 14.8946 14.125 14.7635 13.7367L13.816 14.0566L12.8686 14.3766C13.076 14.9909 13.3834 15.5368 13.8144 15.977L14.5289 15.2773ZM13.816 14.0566L14.7671 13.7478C14.6455 13.3733 14.5719 12.881 14.5719 12.25H13.5719H12.5719C12.5719 13.0252 12.6609 13.7375 12.8648 14.3655L13.816 14.0566ZM13.5719 12.25H14.5719V5.43359H13.5719H12.5719V12.25H13.5719ZM13.5719 5.43359V6.43359H15.3785V5.43359V4.43359H13.5719V5.43359ZM15.3785 5.43359H14.3785V12.2695H15.3785H16.3785V5.43359H15.3785ZM15.3785 12.2695H14.3785C14.3785 12.809 14.4365 13.3187 14.5861 13.7674L15.5348 13.4512L16.4834 13.1349C16.4247 12.9587 16.3785 12.6806 16.3785 12.2695H15.3785ZM15.5348 13.4512L14.5944 13.7913C14.7423 14.2002 14.9576 14.5812 15.2671 14.8907L15.9742 14.1836L16.6813 13.4765C16.6262 13.4214 16.5486 13.3141 16.4751 13.111L15.5348 13.4512ZM15.9742 14.1836L15.2928 14.9155C15.5818 15.1845 15.9182 15.3889 16.2994 15.5087L16.5992 14.5547L16.899 13.6007C16.8245 13.5773 16.7443 13.5342 16.6556 13.4517L15.9742 14.1836ZM16.5992 14.5547L16.307 15.511C16.637 15.6119 16.9764 15.6621 17.3219 15.6621V14.6621V13.6621C17.1726 13.6621 17.0302 13.6407 16.8914 13.5983L16.5992 14.5547ZM17.3219 14.6621V15.6621C18.2042 15.6621 19.0266 15.4957 19.6943 15.0603L19.148 14.2227L18.6018 13.385C18.3711 13.5355 17.976 13.6621 17.3219 13.6621V14.6621ZM19.148 14.2227L19.7027 15.0547C20.3222 14.6417 20.7765 14.0779 21.0466 13.3845L20.1148 13.0215L19.1831 12.6585C19.0626 12.9677 18.8723 13.2046 18.5933 13.3906L19.148 14.2227ZM20.1148 13.0215L21.0441 13.3908C21.2984 12.751 21.4176 12.0604 21.4176 11.332H20.4176H19.4176C19.4176 11.8406 19.3349 12.2763 19.1855 12.6521L20.1148 13.0215ZM26.6027 7.46484H27.6027V7.42644L27.5998 7.38815L26.6027 7.46484ZM26.6027 20.0625V21.0625H27.6027V20.0625H26.6027ZM24.7863 20.0625H23.7863V21.0625H24.7863V20.0625ZM24.7863 5.43359V4.43359H23.7863V5.43359H24.7863ZM26.4465 5.43359L27.4435 5.3569L27.3725 4.43359H26.4465V5.43359ZM33.4484 12.9727L34.4114 13.2423L34.4121 13.2398L33.4484 12.9727ZM32.6477 14.6719L31.8398 14.0824L31.8347 14.0896L32.6477 14.6719ZM25.675 13.373L24.7316 13.7048L24.7349 13.714L25.675 13.373ZM25.2453 11.3711H24.2453V11.4236L24.2508 11.4758L25.2453 11.3711ZM25.2453 10.2773L24.2503 10.1778L24.2453 10.2275V10.2773H25.2453ZM26.5344 6.5957L25.7569 5.96683L25.7558 5.96818L26.5344 6.5957ZM27.8332 5.58984L28.2426 6.50225L28.2523 6.4978L27.8332 5.58984ZM31.3586 5.62891L30.9068 6.52111L30.9159 6.52559L31.3586 5.62891ZM33.4484 8.43164L32.4817 8.68755L32.4848 8.69879L33.4484 8.43164ZM31.7395 9.14453L30.7662 9.37432L30.7669 9.37739L31.7395 9.14453ZM31.2219 7.91406L30.3782 8.45094L30.3839 8.45991L30.3898 8.46876L31.2219 7.91406ZM30.343 7.07422L29.84 7.93865L29.852 7.94537L30.343 7.07422ZM27.8723 6.99609L27.4532 6.08811L27.4465 6.09127L27.8723 6.99609ZM27.0227 7.63086L27.766 8.29987L27.7741 8.29066L27.0227 7.63086ZM26.4465 8.5293L25.5319 8.12477L25.5283 8.13321L26.4465 8.5293ZM26.1242 9.56445L25.1436 9.36834L25.1242 9.46543V9.56445H26.1242ZM26.1242 12.0938H25.1242V12.2338L25.1627 12.3685L26.1242 12.0938ZM26.6711 13.3828L25.8063 13.885L25.8099 13.8911L26.6711 13.3828ZM27.6086 14.3496L27.0735 15.1945L27.0837 15.2008L27.6086 14.3496ZM30.343 14.4082L30.8408 15.2755L30.8459 15.2726L30.343 14.4082ZM31.2219 13.5586L30.3851 13.0109L30.3782 13.0217L31.2219 13.5586ZM31.7395 12.3281L32.712 12.561L32.7127 12.5579L31.7395 12.3281ZM26.6027 7.46484H25.6027V20.0625H26.6027H27.6027V7.46484H26.6027ZM26.6027 20.0625V19.0625H24.7863V20.0625V21.0625H26.6027V20.0625ZM24.7863 20.0625H25.7863V5.43359H24.7863H23.7863V20.0625H24.7863ZM24.7863 5.43359V6.43359H26.4465V5.43359V4.43359H24.7863V5.43359ZM26.4465 5.43359L25.4494 5.51029L25.6057 7.54154L26.6027 7.46484L27.5998 7.38815L27.4435 5.3569L26.4465 5.43359ZM33.7219 10.6289H32.7219V10.834H33.7219H34.7219V10.6289H33.7219ZM33.7219 10.834H32.7219C32.7219 11.5231 32.6401 12.1451 32.4848 12.7055L33.4484 12.9727L34.4121 13.2398C34.6213 12.4851 34.7219 11.6813 34.7219 10.834H33.7219ZM33.4484 12.9727L32.4855 12.703C32.3311 13.2543 32.1122 13.7091 31.8398 14.0824L32.6477 14.6719L33.4554 15.2613C33.8862 14.6711 34.2012 13.9931 34.4114 13.2423L33.4484 12.9727ZM32.6477 14.6719L31.8347 14.0896C31.5772 14.449 31.2684 14.7178 30.9031 14.9098L31.3684 15.7949L31.8336 16.6801C32.484 16.3382 33.028 15.8583 33.4606 15.2542L32.6477 14.6719ZM31.3684 15.7949L30.9031 14.9098C30.5585 15.0909 30.1396 15.1953 29.6203 15.1953V16.1953V17.1953C30.4161 17.1953 31.1626 17.0328 31.8336 16.6801L31.3684 15.7949ZM29.6203 16.1953V15.1953C29.0593 15.1953 28.6056 15.1028 28.2383 14.9447L27.843 15.8633L27.4476 16.7818C28.109 17.0664 28.8401 17.1953 29.6203 17.1953V16.1953ZM27.843 15.8633L28.2383 14.9447C27.8646 14.7839 27.5548 14.5544 27.2978 14.2505L26.5344 14.8965L25.771 15.5424C26.23 16.085 26.7927 16.4999 27.4476 16.7818L27.843 15.8633ZM26.5344 14.8965L27.2978 14.2505C27.0259 13.9293 26.795 13.5283 26.6151 13.0321L25.675 13.373L24.7349 13.714C24.9847 14.4027 25.3267 15.0174 25.771 15.5424L26.5344 14.8965ZM25.675 13.373L26.6184 13.0413C26.4402 12.5345 26.3113 11.9452 26.2398 11.2664L25.2453 11.3711L24.2508 11.4758C24.3356 12.2813 24.4932 13.0267 24.7316 13.7048L25.675 13.373ZM25.2453 11.3711H26.2453V10.2773H25.2453H24.2453V11.3711H25.2453ZM25.2453 10.2773L26.2403 10.3768C26.3122 9.65861 26.4447 9.03746 26.6294 8.50587L25.6848 8.17773L24.7401 7.8496C24.4951 8.55499 24.3347 9.33357 24.2503 10.1778L25.2453 10.2773ZM25.6848 8.17773L26.6294 8.50587C26.8127 7.97803 27.0446 7.55623 27.313 7.22323L26.5344 6.5957L25.7558 5.96818C25.321 6.50757 24.9865 7.14046 24.7401 7.8496L25.6848 8.17773ZM26.5344 6.5957L27.3119 7.22457C27.5736 6.90104 27.8814 6.66432 28.2426 6.50225L27.8332 5.58984L27.4238 4.67749C26.7694 4.97115 26.2113 5.40494 25.7569 5.96683L26.5344 6.5957ZM27.8332 5.58984L28.2523 6.4978C28.6064 6.33436 29.0449 6.23828 29.591 6.23828V5.23828V4.23828C28.809 4.23828 28.0757 4.37657 27.4141 4.68188L27.8332 5.58984ZM29.591 5.23828V6.23828C30.122 6.23828 30.5524 6.34166 30.9068 6.52111L31.3586 5.62891L31.8103 4.73675C31.1361 4.39537 30.3881 4.23828 29.591 4.23828V5.23828ZM31.3586 5.62891L30.9159 6.52559C31.283 6.70683 31.5936 6.96602 31.8535 7.31736L32.6574 6.72266L33.4614 6.12796C33.0181 5.52877 32.4628 5.0588 31.8013 4.73222L31.3586 5.62891ZM32.6574 6.72266L31.8535 7.31736C32.1187 7.67592 32.3331 8.12618 32.4817 8.68755L33.4484 8.43164L34.4151 8.17575C34.2122 7.409 33.8993 6.71991 33.4614 6.12796L32.6574 6.72266ZM33.4484 8.43164L32.4848 8.69879C32.639 9.25517 32.7219 9.8959 32.7219 10.6289H33.7219H34.7219C34.7219 9.74733 34.6224 8.92322 34.4121 8.16449L33.4484 8.43164ZM31.9055 10.834H32.9055V10.6289H31.9055H30.9055V10.834H31.9055ZM31.9055 10.6289H32.9055C32.9055 10.0316 32.8428 9.45798 32.712 8.91168L31.7395 9.14453L30.7669 9.37739C30.8575 9.75556 30.9055 10.1716 30.9055 10.6289H31.9055ZM31.7395 9.14453L32.7127 8.91474C32.5784 8.34617 32.3629 7.82279 32.0539 7.35936L31.2219 7.91406L30.3898 8.46876C30.5496 8.70846 30.6791 9.0054 30.7662 9.37432L31.7395 9.14453ZM31.2219 7.91406L32.0655 7.37719C31.7524 6.88508 31.3401 6.48832 30.834 6.20307L30.343 7.07422L29.852 7.94537C30.062 8.06377 30.2356 8.2269 30.3782 8.45094L31.2219 7.91406ZM30.343 7.07422L30.8459 6.20987C30.3078 5.89684 29.7007 5.76172 29.0637 5.76172V6.76172V7.76172C29.4162 7.76172 29.6619 7.83501 29.84 7.93865L30.343 7.07422ZM29.0637 6.76172V5.76172C28.4947 5.76172 27.949 5.85929 27.4532 6.08811L27.8723 6.99609L28.2913 7.90405C28.4726 7.82038 28.7212 7.76172 29.0637 7.76172V6.76172ZM27.8723 6.99609L27.4465 6.09127C26.9944 6.304 26.5992 6.59754 26.2712 6.97106L27.0227 7.63086L27.7741 8.29066C27.9149 8.13033 28.086 8.00069 28.2981 7.90091L27.8723 6.99609ZM27.0227 7.63086L26.2794 6.96189C25.9704 7.30521 25.722 7.69508 25.5319 8.12477L26.4465 8.5293L27.361 8.9338C27.4704 8.68641 27.6063 8.4774 27.766 8.29987L27.0227 7.63086ZM26.4465 8.5293L25.5283 8.13321C25.357 8.53016 25.2288 8.94229 25.1436 9.36834L26.1242 9.56445L27.1048 9.76057C27.1628 9.47047 27.2495 9.1925 27.3647 8.92539L26.4465 8.5293ZM26.1242 9.56445H25.1242V12.0938H26.1242H27.1242V9.56445H26.1242ZM26.1242 12.0938L25.1627 12.3685C25.3153 12.9025 25.5298 13.4088 25.8063 13.885L26.6711 13.3828L27.5359 12.8807C27.3437 12.5496 27.1936 12.1965 27.0857 11.819L26.1242 12.0938ZM26.6711 13.3828L25.8099 13.8911C26.125 14.425 26.5494 14.8626 27.0735 15.1945L27.6086 14.3496L28.1436 13.5048C27.8865 13.3419 27.6859 13.1349 27.5323 12.8746L26.6711 13.3828ZM27.6086 14.3496L27.0837 15.2008C27.6719 15.5635 28.3584 15.7109 29.0832 15.7109V14.7109V13.7109C28.6231 13.7109 28.3266 13.6175 28.1335 13.4984L27.6086 14.3496ZM29.0832 14.7109V15.7109C29.7105 15.7109 30.3095 15.5805 30.8408 15.2755L30.343 14.4082L29.8451 13.541C29.6733 13.6396 29.4325 13.7109 29.0832 13.7109V14.7109ZM30.343 14.4082L30.8459 15.2726C31.3455 14.9818 31.7541 14.5849 32.0655 14.0955L31.2219 13.5586L30.3782 13.0217C30.234 13.2484 30.0566 13.4179 29.8401 13.5439L30.343 14.4082ZM31.2219 13.5586L32.0586 14.1063C32.3626 13.6418 32.5774 13.1229 32.712 12.561L31.7395 12.3281L30.7669 12.0953C30.6801 12.4579 30.5498 12.7593 30.3851 13.0109L31.2219 13.5586ZM31.7395 12.3281L32.7127 12.5579C32.8427 12.0071 32.9055 11.4315 32.9055 10.834H31.9055H30.9055C30.9055 11.2912 30.8575 11.7116 30.7662 12.0983L31.7395 12.3281ZM38.1395 1H39.1395V0H38.1395V1ZM38.1395 16V17H39.1395V16H38.1395ZM36.323 16H35.323V17H36.323V16ZM36.323 1V0H35.323V1H36.323ZM38.1395 1H37.1395V16H38.1395H39.1395V1H38.1395ZM38.1395 16V15H36.323V16V17H38.1395V16ZM36.323 16H37.323V1H36.323H35.323V16H36.323ZM36.323 1V2H38.1395V1V0H36.323V1ZM43.5727 15.8242L43.1787 16.7434L43.1909 16.7485L43.5727 15.8242ZM42.0395 14.7598L41.3066 15.4402L41.3119 15.4458L42.0395 14.7598ZM41.102 8.38281L42.0372 8.73692L42.0383 8.73394L41.102 8.38281ZM47.2934 5.62891L46.8634 6.53178L46.8676 6.53373L47.2934 5.62891ZM48.6508 6.72266L47.8508 7.32267L47.8548 7.32802L48.6508 6.72266ZM49.432 8.36328L48.4661 8.62218L48.4668 8.6247L49.432 8.36328ZM49.6859 11.2246V12.2246H50.6859V11.2246H49.6859ZM41.7953 11.2246H40.7953V12.2246H41.7953V11.2246ZM41.7953 9.75V8.75H40.7953V9.75H41.7953ZM47.8793 9.75V10.75H48.8793V9.75H47.8793ZM47.8793 9.61328H48.8793V9.58553L48.8778 9.55781L47.8793 9.61328ZM47.5863 8.24609L46.6477 8.59119L46.6523 8.60323L47.5863 8.24609ZM44.2074 6.98633L44.6478 7.88412L44.6546 7.88079L44.6613 7.87737L44.2074 6.98633ZM42.7426 12.5039L41.7871 12.799L41.7897 12.8075L41.7925 12.8159L42.7426 12.5039ZM43.3578 13.6562L42.5784 14.2829L42.5859 14.292L43.3578 13.6562ZM44.3441 14.4375L43.903 15.335L43.909 15.3378L44.3441 14.4375ZM48.4555 13.2852L49.0776 12.5022L48.2782 11.867L47.6598 12.6795L48.4555 13.2852ZM49.5492 14.1543L50.3837 14.7054L50.8884 13.9411L50.1714 13.3714L49.5492 14.1543ZM47.3812 15.9023L47.0262 14.9675L47.0223 14.969L47.3812 15.9023ZM45.5746 16.1953V15.1953C44.9523 15.1953 44.417 15.091 43.9544 14.9L43.5727 15.8242L43.1909 16.7485C43.9262 17.0522 44.7256 17.1953 45.5746 17.1953V16.1953ZM43.5727 15.8242L43.9666 14.9051C43.4964 14.7036 43.0999 14.4268 42.767 14.0738L42.0395 14.7598L41.3119 15.4458C41.8384 16.0042 42.464 16.4371 43.1787 16.7434L43.5727 15.8242ZM42.0395 14.7598L42.7722 14.0793C42.446 13.728 42.1878 13.3047 42.0024 12.7961L41.0629 13.1387L40.1234 13.4812C40.3937 14.2227 40.7864 14.8801 41.3066 15.4402L42.0395 14.7598ZM41.0629 13.1387L42.0024 12.7961C41.8189 12.2929 41.7211 11.7267 41.7211 11.0879H40.7211H39.7211C39.7211 11.9335 39.8511 12.7345 40.1234 13.4812L41.0629 13.1387ZM40.7211 11.0879H41.7211V10.6777H40.7211H39.7211V11.0879H40.7211ZM40.7211 10.6777H41.7211C41.7211 9.91594 41.8337 9.27435 42.0372 8.73692L41.102 8.38281L40.1667 8.02871C39.8624 8.83242 39.7211 9.72078 39.7211 10.6777H40.7211ZM41.102 8.38281L42.0383 8.73394C42.2522 8.16342 42.5328 7.70681 42.8692 7.34529L42.1371 6.66406L41.405 5.98283C40.8691 6.55881 40.4595 7.24804 40.1656 8.03169L41.102 8.38281ZM42.1371 6.66406L42.8692 7.34529C43.2176 6.97091 43.6008 6.69925 44.0206 6.51651L43.6215 5.59961L43.2224 4.68271C42.5354 4.98174 41.9291 5.41972 41.405 5.98283L42.1371 6.66406ZM43.6215 5.59961L44.0206 6.51651C44.4505 6.32938 44.8877 6.23828 45.3402 6.23828V5.23828V4.23828C44.6078 4.23828 43.8992 4.38807 43.2224 4.68271L43.6215 5.59961ZM45.3402 5.23828V6.23828C45.9825 6.23828 46.4798 6.34909 46.8634 6.53178L47.2934 5.62891L47.7233 4.72605C47.0132 4.38789 46.2084 4.23828 45.3402 4.23828V5.23828ZM47.2934 5.62891L46.8676 6.53373C47.2799 6.72776 47.6015 6.99034 47.8508 7.32267L48.6508 6.72266L49.4508 6.12266C48.9969 5.51748 48.4136 5.05088 47.7192 4.72409L47.2934 5.62891ZM48.6508 6.72266L47.8548 7.32802C48.1185 7.67469 48.3263 8.10038 48.4661 8.62218L49.432 8.36328L50.3979 8.10438C50.1993 7.36317 49.8862 6.6951 49.4467 6.11729L48.6508 6.72266ZM49.432 8.36328L48.4668 8.6247C48.6099 9.15311 48.6859 9.74756 48.6859 10.4141H49.6859H50.6859C50.6859 9.59619 50.5927 8.82345 50.3973 8.10187L49.432 8.36328ZM49.6859 10.4141H48.6859V11.2246H49.6859H50.6859V10.4141H49.6859ZM49.6859 11.2246V10.2246H41.7953V11.2246V12.2246H49.6859V11.2246ZM41.7953 11.2246H42.7953V9.75H41.7953H40.7953V11.2246H41.7953ZM41.7953 9.75V10.75H47.8793V9.75V8.75H41.7953V9.75ZM47.8793 9.75H48.8793V9.61328H47.8793H46.8793V9.75H47.8793ZM47.8793 9.61328L48.8778 9.55781C48.8459 8.98478 48.7262 8.42735 48.5204 7.88896L47.5863 8.24609L46.6523 8.60323C46.785 8.95026 46.8606 9.30428 46.8808 9.66875L47.8793 9.61328ZM47.5863 8.24609L48.5249 7.90103C48.3011 7.29229 47.9345 6.77524 47.4298 6.37148L46.8051 7.15234L46.1804 7.93321C46.3918 8.10237 46.546 8.31451 46.6477 8.59119L47.5863 8.24609ZM46.8051 7.15234L47.4298 6.37148C46.8413 5.90066 46.1068 5.72266 45.3402 5.72266V6.72266V7.72266C45.8106 7.72266 46.0528 7.83111 46.1804 7.93321L46.8051 7.15234ZM45.3402 6.72266V5.72266C44.7819 5.72266 44.2474 5.84365 43.7535 6.09529L44.2074 6.98633L44.6613 7.87737C44.8575 7.77744 45.0783 7.72266 45.3402 7.72266V6.72266ZM44.2074 6.98633L43.767 6.08854C43.2636 6.33551 42.8455 6.70084 42.5114 7.15803L43.3187 7.74805L44.1261 8.33806C44.2868 8.11817 44.4612 7.97569 44.6478 7.88412L44.2074 6.98633ZM43.3187 7.74805L42.5114 7.15803C42.1803 7.61106 41.942 8.13855 41.7796 8.71865L42.7426 8.98828L43.7055 9.25791C43.8166 8.86145 43.9624 8.56211 44.1261 8.33806L43.3187 7.74805ZM42.7426 8.98828L41.7796 8.71865C41.6129 9.31389 41.5375 9.97092 41.5375 10.6777H42.5375H43.5375C43.5375 10.1085 43.5988 9.63923 43.7055 9.25791L42.7426 8.98828ZM42.5375 10.6777H41.5375V11.0879H42.5375H43.5375V10.6777H42.5375ZM42.5375 11.0879H41.5375C41.5375 11.6811 41.6185 12.2532 41.7871 12.799L42.7426 12.5039L43.6981 12.2088C43.5932 11.8692 43.5375 11.4973 43.5375 11.0879H42.5375ZM42.7426 12.5039L41.7925 12.8159C41.9703 13.3574 42.2305 13.8501 42.5784 14.2829L43.3578 13.6562L44.1372 13.0297C43.9513 12.7985 43.8013 12.5228 43.6927 12.1919L42.7426 12.5039ZM43.3578 13.6562L42.5859 14.292C42.9493 14.7332 43.3906 15.0832 43.903 15.335L44.3441 14.4375L44.7853 13.5401C44.5294 13.4143 44.3132 13.2434 44.1297 13.0205L43.3578 13.6562ZM44.3441 14.4375L43.909 15.3378C44.4532 15.6009 45.048 15.7207 45.6723 15.7207V14.7207V13.7207C45.307 13.7207 45.0163 13.6517 44.7793 13.5372L44.3441 14.4375ZM45.6723 14.7207V15.7207C46.4458 15.7207 47.1709 15.5623 47.8004 15.192L47.2934 14.3301L46.7863 13.4681C46.5304 13.6187 46.1748 13.7207 45.6723 13.7207V14.7207ZM47.2934 14.3301L47.8004 15.192C48.3624 14.8614 48.8458 14.4234 49.2512 13.8908L48.4555 13.2852L47.6598 12.6795C47.401 13.0194 47.1097 13.2779 46.7863 13.4681L47.2934 14.3301ZM48.4555 13.2852L47.8333 14.0681L48.9271 14.9372L49.5492 14.1543L50.1714 13.3714L49.0776 12.5022L48.4555 13.2852ZM49.5492 14.1543L48.7148 13.6032C48.5409 13.8666 48.311 14.1307 48.0157 14.3932L48.6801 15.1406L49.3444 15.888C49.7523 15.5255 50.1019 15.1321 50.3837 14.7054L49.5492 14.1543ZM48.6801 15.1406L48.0157 14.3932C47.769 14.6125 47.4458 14.8081 47.0262 14.9675L47.3812 15.9023L47.7363 16.8372C48.3453 16.6059 48.888 16.2937 49.3444 15.888L48.6801 15.1406ZM47.3812 15.9023L47.0223 14.969C46.6561 15.1098 46.1813 15.1953 45.5746 15.1953V16.1953V17.1953C46.3611 17.1953 47.0907 17.0855 47.7402 16.8357L47.3812 15.9023ZM59.6406 11.5273L58.7043 11.8785L58.7097 11.8928L58.7155 11.9069L59.6406 11.5273ZM59.1133 10.8242L58.4691 11.5892L58.479 11.5973L59.1133 10.8242ZM58.0781 10.2285L57.6809 11.1463L57.6858 11.1484L58.0781 10.2285ZM56.418 9.65234L56.1339 10.6112L56.1383 10.6124L56.418 9.65234ZM54.5137 8.95898L54.0959 9.8676L54.1046 9.87149L54.5137 8.95898ZM53.127 2.69922L53.7589 3.47424L53.7602 3.47318L53.127 2.69922ZM59.3574 2.20117L58.8737 3.07646L58.8829 3.0814L59.3574 2.20117ZM61.0664 3.79297L60.2067 4.30371L60.2089 4.30746L61.0664 3.79297ZM61.6523 5.88281V6.88281H62.6523V5.88281H61.6523ZM59.7773 5.88281H58.7773V6.88281H59.7773V5.88281ZM59.4355 4.4668L58.5582 4.94662L58.5614 4.95244L59.4355 4.4668ZM58.4004 3.49023L57.9382 4.3771L57.9482 4.38214L58.4004 3.49023ZM54.0059 4.25195L53.1569 3.72334L53.1498 3.73508L54.0059 4.25195ZM53.8789 6.25391L52.9845 6.70112L52.9916 6.71539L52.9992 6.72942L53.8789 6.25391ZM54.4746 6.92773L53.8593 7.7161L53.8686 7.72317L54.4746 6.92773ZM55.5098 7.50391L55.1211 8.42529L55.1262 8.4274L55.5098 7.50391ZM57.0234 8.01172L57.2951 7.04931L57.2911 7.0482L57.0234 8.01172ZM60.5586 9.7207L59.8772 10.4526L59.8837 10.4587L59.8903 10.4646L60.5586 9.7207ZM61.4082 10.9023L60.4835 11.2831L60.4869 11.2914L60.4905 11.2996L61.4082 10.9023ZM58.7617 15.9316L59.0405 16.892L59.0472 16.89L58.7617 15.9316ZM54.7871 15.9219L54.5098 16.8827L54.5124 16.8834L54.7871 15.9219ZM53.0586 15.1016L52.4803 15.9174L52.4851 15.9208L53.0586 15.1016ZM51.8184 13.7539L50.9482 14.2467L50.9517 14.2529L50.9553 14.2591L51.8184 13.7539ZM51.3594 11.8789V10.8789H50.3594V11.8789H51.3594ZM53.2344 11.8789H54.2344V10.8789H53.2344V11.8789ZM53.5176 13.1387L52.6366 13.6118L52.6403 13.6187L53.5176 13.1387ZM54.2891 13.998L53.7156 14.8173L53.7232 14.8226L54.2891 13.998ZM55.4121 14.5059L55.1554 15.4723L55.1642 15.4747L55.1731 15.4769L55.4121 14.5059ZM59.4355 13.6074L58.6207 13.0276L58.6134 13.0382L59.4355 13.6074ZM59.7969 12.4062H60.7969C60.7969 11.9707 60.7286 11.5446 60.5658 11.1478L59.6406 11.5273L58.7155 11.9069C58.761 12.0179 58.7969 12.1778 58.7969 12.4062H59.7969ZM59.6406 11.5273L60.577 11.1762C60.4072 10.7234 60.1128 10.3508 59.7476 10.0511L59.1133 10.8242L58.479 11.5973C58.6216 11.7143 58.6788 11.8104 58.7043 11.8785L59.6406 11.5273ZM59.1133 10.8242L59.7574 10.0593C59.407 9.76418 58.9644 9.51933 58.4704 9.30867L58.0781 10.2285L57.6858 11.1484C58.0773 11.3153 58.3248 11.4677 58.4691 11.5892L59.1133 10.8242ZM58.0781 10.2285L58.4753 9.31079C57.9877 9.09971 57.3915 8.89434 56.6976 8.69224L56.418 9.65234L56.1383 10.6124C56.7856 10.801 57.2962 10.9798 57.6809 11.1463L58.0781 10.2285ZM56.418 9.65234L56.7021 8.69355C56.0342 8.49565 55.4421 8.27928 54.9227 8.04647L54.5137 8.95898L54.1046 9.87149C54.7181 10.1465 55.3955 10.3925 56.1339 10.6112L56.418 9.65234ZM54.5137 8.95898L54.9314 8.05042C54.4286 7.81922 54.0199 7.56618 53.6939 7.29802L53.0586 8.07031L52.4233 8.8426C52.9046 9.23851 53.466 9.57797 54.0959 9.8676L54.5137 8.95898ZM53.0586 8.07031L53.6939 7.29802C53.3888 7.04708 53.1721 6.77421 53.0253 6.48052L52.1309 6.92773L51.2364 7.37495C51.5193 7.94064 51.9211 8.42948 52.4233 8.8426L53.0586 8.07031ZM52.1309 6.92773L53.0253 6.48052C52.8897 6.20938 52.8086 5.8749 52.8086 5.45312H51.8086H50.8086C50.8086 6.13812 50.9423 6.78671 51.2364 7.37495L52.1309 6.92773ZM51.8086 5.45312H52.8086C52.8086 5.04164 52.8922 4.68128 53.0498 4.35711L52.1504 3.91992L51.251 3.48273C50.9529 4.09607 50.8086 4.75784 50.8086 5.45312H51.8086ZM52.1504 3.91992L53.0498 4.35711C53.2111 4.0253 53.4429 3.73193 53.7589 3.47424L53.127 2.69922L52.495 1.9242C51.9647 2.35661 51.5455 2.87705 51.251 3.48273L52.1504 3.91992ZM53.127 2.69922L53.7602 3.47318C54.0838 3.20837 54.4831 2.99022 54.9733 2.82863L54.6602 1.87891L54.3471 0.929184C53.6523 1.15821 53.0294 1.48694 52.4937 1.92526L53.127 2.69922ZM54.6602 1.87891L54.9733 2.82863C55.4493 2.6717 56.0022 2.58594 56.6426 2.58594V1.58594V0.585938C55.8246 0.585938 55.0559 0.695486 54.3471 0.929184L54.6602 1.87891ZM56.6426 1.58594V2.58594C57.5842 2.58594 58.3132 2.76671 58.8737 3.07646L59.3574 2.20117L59.8411 1.32593C58.9172 0.815374 57.8364 0.585938 56.6426 0.585938V1.58594ZM59.3574 2.20117L58.8829 3.0814C59.4904 3.40896 59.9187 3.81897 60.2067 4.30371L61.0664 3.79297L61.9261 3.28223C61.4329 2.45188 60.7218 1.80068 59.832 1.32095L59.3574 2.20117ZM61.0664 3.79297L60.2089 4.30746C60.5085 4.80684 60.6523 5.3262 60.6523 5.88281H61.6523H62.6523C62.6523 4.95505 62.4055 4.08118 61.9239 3.27847L61.0664 3.79297ZM61.6523 5.88281V4.88281H59.7773V5.88281V6.88281H61.6523V5.88281ZM59.7773 5.88281H60.7773C60.7773 5.20276 60.6309 4.55933 60.3097 3.98115L59.4355 4.4668L58.5614 4.95244C58.6959 5.19458 58.7773 5.49516 58.7773 5.88281H59.7773ZM59.4355 4.4668L60.3129 3.98698C59.9793 3.37698 59.4777 2.91528 58.8526 2.59833L58.4004 3.49023L57.9482 4.38214C58.2476 4.53394 58.436 4.72329 58.5582 4.94662L59.4355 4.4668ZM58.4004 3.49023L58.8625 2.60343C58.2155 2.26623 57.4578 2.12891 56.6426 2.12891V3.12891V4.12891C57.2467 4.12891 57.6607 4.23253 57.9382 4.3771L58.4004 3.49023ZM56.6426 3.12891V2.12891C55.8806 2.12891 55.1716 2.24227 54.5625 2.52408L54.9824 3.43164L55.4023 4.3392C55.6657 4.21737 56.0634 4.12891 56.6426 4.12891V3.12891ZM54.9824 3.43164L54.5625 2.52408C53.9823 2.79254 53.4923 3.1846 53.1569 3.72334L54.0059 4.25195L54.8548 4.78051C54.949 4.62915 55.1102 4.47439 55.4023 4.3392L54.9824 3.43164ZM54.0059 4.25195L53.1498 3.73508C52.8382 4.2512 52.6934 4.82719 52.6934 5.43359H53.6934H54.6934C54.6934 5.15458 54.7569 4.94281 54.8619 4.76882L54.0059 4.25195ZM53.6934 5.43359H52.6934C52.6934 5.87522 52.7857 6.30361 52.9845 6.70112L53.8789 6.25391L54.7733 5.80669C54.7247 5.70941 54.6934 5.59093 54.6934 5.43359H53.6934ZM53.8789 6.25391L52.9992 6.72942C53.2086 7.11682 53.5086 7.44239 53.8593 7.7161L54.4746 6.92773L55.0899 6.13942C54.9067 5.99646 54.8096 5.87277 54.7586 5.77839L53.8789 6.25391ZM54.4746 6.92773L53.8686 7.72317C54.2261 7.99554 54.6498 8.22646 55.1211 8.42529L55.5098 7.50391L55.8985 6.58254C55.5364 6.42981 55.27 6.2766 55.0807 6.1323L54.4746 6.92773ZM55.5098 7.50391L55.1262 8.4274C55.597 8.623 56.1423 8.80483 56.7558 8.97524L57.0234 8.01172L57.2911 7.0482C56.7327 6.89309 56.2688 6.73637 55.8934 6.58041L55.5098 7.50391ZM57.0234 8.01172L56.7518 8.97412C57.5192 9.19073 58.1599 9.4262 58.6822 9.67574L59.1133 8.77344L59.5444 7.87113C58.8948 7.56077 58.1422 7.28842 57.2951 7.04931L57.0234 8.01172ZM59.1133 8.77344L58.6822 9.67574C59.1991 9.9227 59.5902 10.1854 59.8772 10.4526L60.5586 9.7207L61.24 8.98881C60.7718 8.55287 60.1994 8.18407 59.5444 7.87113L59.1133 8.77344ZM60.5586 9.7207L59.8903 10.4646C60.1717 10.7174 60.3628 10.9898 60.4835 11.2831L61.4082 10.9023L62.3329 10.5216C62.0891 9.92945 61.7137 9.4141 61.2269 8.97678L60.5586 9.7207ZM61.4082 10.9023L60.4905 11.2996C60.6168 11.5915 60.6914 11.9478 60.6914 12.3867H61.6914H62.6914C62.6914 11.7189 62.5772 11.0856 62.3259 10.5051L61.4082 10.9023ZM61.6914 12.3867H60.6914C60.6914 12.8275 60.6033 13.196 60.4454 13.5118L61.3398 13.959L62.2343 14.4062C62.5451 13.7844 62.6914 13.1048 62.6914 12.3867H61.6914ZM61.3398 13.959L60.4454 13.5118C60.2826 13.8375 60.0486 14.1206 59.7283 14.3645L60.334 15.1602L60.9397 15.9559C61.4917 15.5356 61.9284 15.018 62.2343 14.4062L61.3398 13.959ZM60.334 15.1602L59.7283 14.3645C59.4026 14.6124 58.9913 14.8198 58.4762 14.9733L58.7617 15.9316L59.0472 16.89C59.7561 16.6789 60.393 16.372 60.9397 15.9559L60.334 15.1602ZM58.7617 15.9316L58.4829 14.9713C57.9831 15.1164 57.4019 15.1953 56.7305 15.1953V16.1953V17.1953C57.5564 17.1953 58.3294 17.0985 59.0405 16.892L58.7617 15.9316ZM56.7305 16.1953V15.1953C56.1667 15.1953 55.6113 15.1174 55.0618 14.9604L54.7871 15.9219L54.5124 16.8834C55.2389 17.091 55.9791 17.1953 56.7305 17.1953V16.1953ZM54.7871 15.9219L55.0644 14.9611C54.5351 14.8083 54.0596 14.5816 53.6321 14.2823L53.0586 15.1016L52.4851 15.9208C53.0992 16.3507 53.7761 16.671 54.5098 16.8827L54.7871 15.9219ZM53.0586 15.1016L53.6369 14.2857C53.2362 14.0017 52.9207 13.6576 52.6814 13.2487L51.8184 13.7539L50.9553 14.2591C51.341 14.9179 51.8524 15.4723 52.4803 15.9174L53.0586 15.1016ZM51.8184 13.7539L52.6885 13.2612C52.4792 12.8914 52.3594 12.4408 52.3594 11.8789H51.3594H50.3594C50.3594 12.7362 50.5456 13.5357 50.9482 14.2467L51.8184 13.7539ZM51.3594 11.8789V12.8789H53.2344V11.8789V10.8789H51.3594V11.8789ZM53.2344 11.8789H52.2344C52.2344 12.4958 52.354 13.0857 52.6366 13.6118L53.5176 13.1387L54.3986 12.6655C54.3035 12.4885 54.2344 12.2386 54.2344 11.8789H53.2344ZM53.5176 13.1387L52.6403 13.6187C52.9037 14.1001 53.2654 14.5021 53.7156 14.8173L54.2891 13.998L54.8625 13.1788C54.6617 13.0382 54.509 12.8674 54.3948 12.6587L53.5176 13.1387ZM54.2891 13.998L53.7232 14.8226C54.1559 15.1195 54.6362 15.3344 55.1554 15.4723L55.4121 14.5059L55.6688 13.5394C55.3547 13.4559 55.0863 13.3323 54.8549 13.1735L54.2891 13.998ZM55.4121 14.5059L55.1731 15.4769C55.678 15.6012 56.1979 15.6621 56.7305 15.6621V14.6621V13.6621C56.3516 13.6621 55.9926 13.6189 55.6511 13.5348L55.4121 14.5059ZM56.7305 14.6621V15.6621C57.4745 15.6621 58.1653 15.5598 58.7718 15.3172L58.4004 14.3887L58.029 13.4602C57.7241 13.5822 57.3015 13.6621 56.7305 13.6621V14.6621ZM58.4004 14.3887L58.7718 15.3172C59.3742 15.0762 59.8916 14.7054 60.2577 14.1766L59.4355 13.6074L58.6134 13.0382C58.5107 13.1865 58.338 13.3366 58.029 13.4602L58.4004 14.3887ZM59.4355 13.6074L60.2503 14.1872C60.6251 13.6604 60.7969 13.0518 60.7969 12.4062H59.7969H58.7969C58.7969 12.6851 58.7276 12.8772 58.6207 13.0276L59.4355 13.6074ZM68.3941 5.43359H69.3941V4.43359H68.3941V5.43359ZM68.3941 6.82031V7.82031H69.3941V6.82031H68.3941ZM62.6813 6.82031H61.6813V7.82031H62.6813V6.82031ZM62.6813 5.43359V4.43359H61.6813V5.43359H62.6813ZM64.6148 2.86523V1.86523H63.6148V2.86523H64.6148ZM66.4215 2.86523H67.4215V1.86523H66.4215V2.86523ZM68.0523 14.6035L68.2103 15.591L68.2258 15.5885L68.2412 15.5855L68.0523 14.6035ZM68.4332 14.5254L69.4332 14.5188L69.4249 13.2703L68.2083 13.551L68.4332 14.5254ZM68.443 16L68.7462 16.9529L69.4478 16.7297L69.4429 15.9934L68.443 16ZM67.8766 16.127L67.7122 15.1406L67.6963 15.1432L67.6805 15.1464L67.8766 16.127ZM64.9371 15.0527L64.0483 15.511L64.0526 15.5194L64.0571 15.5277L64.9371 15.0527ZM68.3941 5.43359H67.3941V6.82031H68.3941H69.3941V5.43359H68.3941ZM68.3941 6.82031V5.82031H62.6813V6.82031V7.82031H68.3941V6.82031ZM62.6813 6.82031H63.6813V5.43359H62.6813H61.6813V6.82031H62.6813ZM62.6813 5.43359V6.43359H68.3941V5.43359V4.43359H62.6813V5.43359ZM64.6148 2.86523V3.86523H66.4215V2.86523V1.86523H64.6148V2.86523ZM66.4215 2.86523H65.4215V13.3828H66.4215H67.4215V2.86523H66.4215ZM66.4215 13.3828H65.4215C65.4215 13.8136 65.4827 14.3005 65.7327 14.7123L66.5875 14.1934L67.4423 13.6744C67.4611 13.7054 67.4537 13.7072 67.4426 13.6534C67.4318 13.6004 67.4215 13.5132 67.4215 13.3828H66.4215ZM66.5875 14.1934L65.7327 14.7123C65.9467 15.0648 66.267 15.3587 66.701 15.5034L67.0172 14.5547L67.3334 13.606C67.3665 13.617 67.3976 13.6349 67.4215 13.655C67.444 13.6739 67.4489 13.6852 67.4423 13.6744L66.5875 14.1934ZM67.0172 14.5547L66.701 15.5034C66.9874 15.5989 67.2839 15.6426 67.5836 15.6426V14.6426V13.6426C67.4797 13.6426 67.3985 13.6277 67.3334 13.606L67.0172 14.5547ZM67.5836 14.6426V15.6426C67.7912 15.6426 68.0005 15.6245 68.2103 15.591L68.0523 14.6035L67.8944 13.6161C67.7787 13.6346 67.6754 13.6426 67.5836 13.6426V14.6426ZM68.0523 14.6035L68.2412 15.5855C68.4133 15.5524 68.5549 15.5236 68.6581 15.4998L68.4332 14.5254L68.2083 13.551C68.1423 13.5662 68.03 13.5895 67.8635 13.6215L68.0523 14.6035ZM68.4332 14.5254L67.4332 14.532L67.443 16.0066L68.443 16L69.4429 15.9934L69.4332 14.5188L68.4332 14.5254ZM68.443 16L68.1398 15.0471C68.0602 15.0724 67.9232 15.1054 67.7122 15.1406L67.8766 16.127L68.041 17.1133C68.2987 17.0704 68.5393 17.0187 68.7462 16.9529L68.443 16ZM67.8766 16.127L67.6805 15.1464C67.5371 15.175 67.3302 15.1953 67.0465 15.1953V16.1953V17.1953C67.4139 17.1953 67.7603 17.17 68.0727 17.1075L67.8766 16.127ZM67.0465 16.1953V15.1953C66.7401 15.1953 66.4809 15.1354 66.2539 15.0279L65.8258 15.9316L65.3977 16.8354C65.9128 17.0794 66.4675 17.1953 67.0465 17.1953V16.1953ZM65.8258 15.9316L66.2539 15.0279C66.1007 14.9553 65.9516 14.827 65.8171 14.5778L64.9371 15.0527L64.0571 15.5277C64.3653 16.0988 64.8087 16.5564 65.3977 16.8354L65.8258 15.9316ZM64.9371 15.0527L65.8259 14.5944C65.7116 14.3727 65.6148 13.9899 65.6148 13.373H64.6148H63.6148C63.6148 14.1625 63.733 14.8995 64.0483 15.511L64.9371 15.0527ZM64.6148 13.373H65.6148V2.86523H64.6148H63.6148V13.373H64.6148ZM70.3215 8.49023L71.2683 8.81214L71.2692 8.80928L70.3215 8.49023ZM71.2785 6.78125L72.0349 7.43542L72.0392 7.43037L71.2785 6.78125ZM72.7922 5.64844L73.203 6.56021L73.2113 6.5564L72.7922 5.64844ZM76.7863 5.64844L76.3672 6.55648L76.3793 6.56184L76.7863 5.64844ZM78.3098 6.78125L77.5491 7.43037L77.5537 7.43581L77.5584 7.44119L78.3098 6.78125ZM79.2766 8.49023L78.3288 8.80928L78.3298 8.81214L79.2766 8.49023ZM78.3098 14.6621L77.5541 14.0072L77.5534 14.008L78.3098 14.6621ZM76.7961 15.7949L77.2107 16.705L77.2152 16.7029L76.7961 15.7949ZM72.802 15.7949L72.3829 16.7029L72.3912 16.7067L72.802 15.7949ZM71.2785 14.6621L70.5178 15.3112L70.5225 15.3167L70.5272 15.3221L71.2785 14.6621ZM71.9816 12.3281L71.0147 12.5833L71.0156 12.5866L71.9816 12.3281ZM72.5383 13.5586L71.7155 14.1271L71.7225 14.137L72.5383 13.5586ZM73.4855 14.4082L73.0024 15.2839L73.0142 15.2901L73.4855 14.4082ZM76.1027 14.4082L76.5805 15.2867L76.5858 15.2838L76.1027 14.4082ZM77.5969 12.3281L76.6333 12.0605L76.6309 12.0696L77.5969 12.3281ZM77.5969 9.13477L76.63 9.38992L76.6321 9.39793L76.6343 9.4059L77.5969 9.13477ZM77.0305 7.89453L76.203 8.45603L76.2088 8.46456L76.2147 8.47296L77.0305 7.89453ZM76.093 7.03516L75.6034 7.90716L75.6099 7.91073L76.093 7.03516ZM73.4758 7.03516L72.9927 6.15955L72.9863 6.16317L73.4758 7.03516ZM72.5383 7.89453L71.7177 7.32303L71.7156 7.3261L72.5383 7.89453ZM71.9816 9.13477L72.9477 9.39328L72.9485 9.38992L71.9816 9.13477ZM69.9895 10.834H70.9895V10.6094H69.9895H68.9895V10.834H69.9895ZM69.9895 10.6094H70.9895C70.9895 9.94543 71.0857 9.34898 71.2683 8.81214L70.3215 8.49023L69.3747 8.16833C69.1145 8.93357 68.9895 9.74988 68.9895 10.6094H69.9895ZM70.3215 8.49023L71.2692 8.80928C71.4529 8.26374 71.7105 7.81052 72.0349 7.43542L71.2785 6.78125L70.5222 6.1271C70.0132 6.71554 69.6328 7.40162 69.3737 8.17119L70.3215 8.49023ZM71.2785 6.78125L72.0392 7.43037C72.3588 7.0558 72.7434 6.76727 73.203 6.56021L72.7922 5.64844L72.3814 4.7367C71.6561 5.0635 71.0315 5.53014 70.5178 6.13213L71.2785 6.78125ZM72.7922 5.64844L73.2113 6.5564C73.6565 6.3509 74.1749 6.23828 74.7844 6.23828V5.23828V4.23828C73.9225 4.23828 73.1128 4.3991 72.3731 4.74048L72.7922 5.64844ZM74.7844 5.23828V6.23828C75.4018 6.23828 75.923 6.3515 76.3672 6.55648L76.7863 5.64844L77.2054 4.74048C76.4646 4.39858 75.6514 4.23828 74.7844 4.23828V5.23828ZM76.7863 5.64844L76.3793 6.56184C76.8452 6.76947 77.2313 7.05793 77.5491 7.43037L78.3098 6.78125L79.0705 6.13213C78.5549 5.52801 77.9254 5.06126 77.1934 4.73503L76.7863 5.64844ZM78.3098 6.78125L77.5584 7.44119C77.8873 7.81554 78.1462 8.26686 78.3288 8.80928L79.2766 8.49023L80.2243 8.17119C79.9642 7.39851 79.5786 6.7105 79.0611 6.12131L78.3098 6.78125ZM79.2766 8.49023L78.3298 8.81214C78.5123 9.34898 78.6086 9.94543 78.6086 10.6094H79.6086H80.6086C80.6086 9.74988 80.4835 8.93357 80.2233 8.16833L79.2766 8.49023ZM79.6086 10.6094H78.6086V10.834H79.6086H80.6086V10.6094H79.6086ZM79.6086 10.834H78.6086C78.6086 11.4979 78.5123 12.0944 78.3298 12.6312L79.2766 12.9531L80.2233 13.275C80.4835 12.5098 80.6086 11.6935 80.6086 10.834H79.6086ZM79.2766 12.9531L78.3298 12.6312C78.1473 13.1679 77.8873 13.6227 77.5541 14.0072L78.3098 14.6621L79.0655 15.317C79.5786 14.725 79.9631 14.0404 80.2233 13.275L79.2766 12.9531ZM78.3098 14.6621L77.5534 14.008C77.2321 14.3794 76.8435 14.6717 76.377 14.887L76.7961 15.7949L77.2152 16.7029C77.9336 16.3713 78.5535 15.909 79.0655 15.317L78.3098 14.6621ZM76.7961 15.7949L76.3815 14.8849C75.9442 15.0841 75.4248 15.1953 74.8039 15.1953V16.1953V17.1953C75.6674 17.1953 76.4761 17.0397 77.2107 16.705L76.7961 15.7949ZM74.8039 16.1953V15.1953C74.1833 15.1953 73.6589 15.0842 73.2127 14.8832L72.802 15.7949L72.3912 16.7067C73.1299 17.0395 73.9402 17.1953 74.8039 17.1953V16.1953ZM72.802 15.7949L73.221 14.887C72.7531 14.671 72.3592 14.3771 72.0298 14.0022L71.2785 14.6621L70.5272 15.3221C71.0442 15.9107 71.6659 16.3719 72.3829 16.7029L72.802 15.7949ZM71.2785 14.6621L72.0392 14.013C71.7104 13.6277 71.4518 13.171 71.2683 12.6312L70.3215 12.9531L69.3747 13.275C69.6339 14.0373 70.0133 14.7199 70.5178 15.3112L71.2785 14.6621ZM70.3215 12.9531L71.2683 12.6312C71.0857 12.0944 70.9895 11.4979 70.9895 10.834H69.9895H68.9895C68.9895 11.6935 69.1145 12.5098 69.3747 13.275L70.3215 12.9531ZM71.7961 10.6094H70.7961V10.834H71.7961H72.7961V10.6094H71.7961ZM71.7961 10.834H70.7961C70.7961 11.44 70.8672 12.0243 71.0147 12.5833L71.9816 12.3281L72.9485 12.073C72.8486 11.6944 72.7961 11.2827 72.7961 10.834H71.7961ZM71.9816 12.3281L71.0156 12.5866C71.166 13.1487 71.3967 13.6658 71.7155 14.1271L72.5383 13.5586L73.361 12.9902C73.185 12.7353 73.0446 12.4321 72.9477 12.0696L71.9816 12.3281ZM72.5383 13.5586L71.7225 14.137C72.062 14.6157 72.4905 15.0015 73.0024 15.2839L73.4855 14.4082L73.9686 13.5326C73.7253 13.3984 73.5224 13.2177 73.354 12.9802L72.5383 13.5586ZM73.4855 14.4082L73.0142 15.2901C73.5598 15.5817 74.1663 15.7109 74.8039 15.7109V14.7109V13.7109C74.4389 13.7109 74.1665 13.6383 73.9569 13.5263L73.4855 14.4082ZM74.8039 14.7109V15.7109C75.4369 15.7109 76.0395 15.5809 76.5805 15.2867L76.1027 14.4082L75.625 13.5297C75.4238 13.6391 75.1605 13.7109 74.8039 13.7109V14.7109ZM76.1027 14.4082L76.5858 15.2838C77.1002 15 77.5285 14.6112 77.863 14.127L77.0402 13.5586L76.2175 12.9902C76.0572 13.2222 75.8605 13.3997 75.6197 13.5326L76.1027 14.4082ZM77.0402 13.5586L77.863 14.127C78.1817 13.6657 78.4125 13.1487 78.5629 12.5866L77.5969 12.3281L76.6309 12.0696C76.5339 12.4321 76.3936 12.7353 76.2175 12.9902L77.0402 13.5586ZM77.5969 12.3281L78.5604 12.5958C78.7168 12.0329 78.7922 11.4442 78.7922 10.834H77.7922H76.7922C76.7922 11.2784 76.7373 11.6859 76.6333 12.0605L77.5969 12.3281ZM77.7922 10.834H78.7922V10.6094H77.7922H76.7922V10.834H77.7922ZM77.7922 10.6094H78.7922C78.7922 10.0046 78.7165 9.42122 78.5594 8.86363L77.5969 9.13477L76.6343 9.4059C76.7377 9.77279 76.7922 10.1725 76.7922 10.6094H77.7922ZM77.5969 9.13477L78.5638 8.87961C78.4127 8.30699 78.1764 7.7817 77.8462 7.3161L77.0305 7.89453L76.2147 8.47296C76.3924 8.72351 76.5337 9.02504 76.63 9.38992L77.5969 9.13477ZM77.0305 7.89453L77.8579 7.33303C77.5241 6.84101 77.0947 6.44571 76.576 6.15958L76.093 7.03516L75.6099 7.91073C75.8465 8.04128 76.0421 8.21888 76.203 8.45603L77.0305 7.89453ZM76.093 7.03516L76.5825 6.16317C76.0373 5.85708 75.4265 5.72266 74.7844 5.72266V6.72266V7.72266C75.1449 7.72266 75.4065 7.79658 75.6034 7.90716L76.093 7.03516ZM74.7844 6.72266V5.72266C74.1458 5.72266 73.5388 5.85825 72.9927 6.15955L73.4758 7.03516L73.9589 7.91073C74.168 7.79536 74.4334 7.72266 74.7844 7.72266V6.72266ZM73.4758 7.03516L72.9863 6.16317C72.4777 6.44867 72.0539 6.84018 71.7177 7.32303L72.5383 7.89453L73.3589 8.46602C73.5304 8.21971 73.7317 8.03831 73.9653 7.90714L73.4758 7.03516ZM72.5383 7.89453L71.7156 7.3261C71.3953 7.78968 71.1646 8.31155 71.0147 8.87961L71.9816 9.13477L72.9485 9.38992C73.046 9.02048 73.1865 8.71553 73.361 8.46296L72.5383 7.89453ZM71.9816 9.13477L71.0156 8.87626C70.8675 9.4299 70.7961 10.0089 70.7961 10.6094H71.7961H72.7961C72.7961 10.1682 72.8484 9.76412 72.9477 9.39328L71.9816 9.13477ZM88.3426 13.7246L89.1365 14.3327L89.1426 14.3246L88.3426 13.7246ZM88.743 12.6602V11.6602H87.8216L87.7463 12.5785L88.743 12.6602ZM90.4617 12.6602L91.4604 12.7122L91.5152 11.6602H90.4617V12.6602ZM89.827 14.4082L89.0165 13.8224L89.0152 13.8242L89.827 14.4082ZM88.3133 15.707L88.7752 16.594L88.7824 16.5901L88.3133 15.707ZM84.1727 15.7754L83.7415 16.6777L83.7454 16.6795L84.1727 15.7754ZM82.7078 14.623L81.9218 15.2414L81.9269 15.2477L82.7078 14.623ZM81.8387 12.9434L80.8797 13.2271L80.8833 13.2388L81.8387 12.9434ZM81.8387 8.5L80.8824 8.20728L80.8806 8.21356L81.8387 8.5ZM82.7078 6.81055L81.9269 6.18583L81.9219 6.19226L82.7078 6.81055ZM84.1727 5.6582L83.7454 4.75405L83.7416 4.7559L84.1727 5.6582ZM88.4207 5.74609L87.9405 6.62331L87.9477 6.62716L88.4207 5.74609ZM89.8758 7.11328L89.0208 7.63205L89.0278 7.64328L89.8758 7.11328ZM90.4617 9.06641V10.0664H91.5074L91.4607 9.02181L90.4617 9.06641ZM88.743 9.06641L87.7457 9.14083L87.8148 10.0664H88.743V9.06641ZM88.3719 7.88477L87.5115 8.39462L87.5186 8.40622L88.3719 7.88477ZM87.5125 7.04492L86.998 7.90242L87.0071 7.90789L87.0164 7.91317L87.5125 7.04492ZM84.8562 7.05469L85.3573 7.92013L85.362 7.91739L84.8562 7.05469ZM83.9676 7.93359L83.1087 7.42131L83.106 7.4259L83.9676 7.93359ZM83.4988 9.1543L82.5216 8.94185L82.5194 8.95264L83.4988 9.1543ZM83.9578 13.5098L83.0962 14.0175L83.103 14.0287L83.9578 13.5098ZM84.8465 14.3887L84.3342 15.2475L84.343 15.2528L84.352 15.2578L84.8465 14.3887ZM86.2527 14.7109V15.7109C86.8233 15.7109 87.3701 15.5931 87.8784 15.348L87.4441 14.4473L87.0098 13.5465C86.789 13.653 86.5415 13.7109 86.2527 13.7109V14.7109ZM87.4441 14.4473L87.8784 15.348C88.3769 15.1077 88.802 14.7693 89.1365 14.3327L88.3426 13.7246L87.5487 13.1165C87.4144 13.2919 87.2406 13.4353 87.0098 13.5465L87.4441 14.4473ZM88.3426 13.7246L89.1426 14.3246C89.4924 13.8582 89.692 13.3228 89.7396 12.7418L88.743 12.6602L87.7463 12.5785C87.7288 12.7917 87.6615 12.9661 87.5426 13.1246L88.3426 13.7246ZM88.743 12.6602V13.6602H90.4617V12.6602V11.6602H88.743V12.6602ZM90.4617 12.6602L89.4631 12.6081C89.4412 13.028 89.302 13.4274 89.0165 13.8224L89.827 14.4082L90.6374 14.994C91.1331 14.3083 91.4171 13.5423 91.4604 12.7122L90.4617 12.6602ZM89.827 14.4082L89.0152 13.8242C88.7275 14.224 88.344 14.5583 87.8441 14.8239L88.3133 15.707L88.7824 16.5901C89.5325 16.1917 90.1581 15.6601 90.6387 14.9922L89.827 14.4082ZM88.3133 15.707L87.8513 14.8201C87.3779 15.0667 86.8509 15.1953 86.2527 15.1953V16.1953V17.1953C87.1519 17.1953 87.9987 16.9985 88.7752 16.594L88.3133 15.707ZM86.2527 16.1953V15.1953C85.5754 15.1953 85.0334 15.0761 84.5999 14.8713L84.1727 15.7754L83.7454 16.6795C84.4968 17.0346 85.3415 17.1953 86.2527 17.1953V16.1953ZM84.1727 15.7754L84.6038 14.8731C84.1485 14.6556 83.7815 14.3643 83.4887 13.9984L82.7078 14.623L81.9269 15.2477C82.4154 15.8583 83.0249 16.3353 83.7415 16.6777L84.1727 15.7754ZM82.7078 14.623L83.4938 14.0048C83.1902 13.6188 82.9555 13.1699 82.794 12.6479L81.8387 12.9434L80.8833 13.2388C81.1125 13.9799 81.4571 14.6508 81.9218 15.2414L82.7078 14.623ZM81.8387 12.9434L82.7976 12.6596C82.6378 12.1196 82.5555 11.5418 82.5555 10.9219H81.5555H80.5555C80.5555 11.7212 80.6619 12.491 80.8797 13.2271L81.8387 12.9434ZM81.5555 10.9219H82.5555V10.5117H81.5555H80.5555V10.9219H81.5555ZM81.5555 10.5117H82.5555C82.5555 9.89168 82.6378 9.31817 82.7968 8.78644L81.8387 8.5L80.8806 8.21356C80.6619 8.94485 80.5555 9.71248 80.5555 10.5117H81.5555ZM81.8387 8.5L82.7949 8.79271C82.9567 8.26399 83.1915 7.81305 83.4938 7.42883L82.7078 6.81055L81.9219 6.19226C81.4559 6.78461 81.1111 7.45995 80.8824 8.20728L81.8387 8.5ZM82.7078 6.81055L83.4887 7.43524C83.7815 7.06926 84.1485 6.77804 84.6038 6.56051L84.1727 5.6582L83.7416 4.7559C83.025 5.09826 82.4154 5.57526 81.9269 6.18583L82.7078 6.81055ZM84.1727 5.6582L84.5999 6.56235C85.0334 6.35748 85.5754 6.23828 86.2527 6.23828V5.23828V4.23828C85.3415 4.23828 84.4968 4.39903 83.7454 4.75405L84.1727 5.6582ZM86.2527 5.23828V6.23828C86.9408 6.23828 87.4927 6.37824 87.9405 6.62331L88.4207 5.74609L88.9008 4.8689C88.1116 4.43689 87.2183 4.23828 86.2527 4.23828V5.23828ZM88.4207 5.74609L87.9477 6.62716C88.4147 6.87786 88.7654 7.21096 89.0208 7.63205L89.8758 7.11328L90.7307 6.59455C90.2831 5.85678 89.6637 5.27839 88.8937 4.86503L88.4207 5.74609ZM89.8758 7.11328L89.0278 7.64328C89.2873 8.05847 89.4372 8.5397 89.4627 9.111L90.4617 9.06641L91.4607 9.02181C91.4211 8.13478 91.1804 7.31393 90.7238 6.58328L89.8758 7.11328ZM90.4617 9.06641V8.06641H88.743V9.06641V10.0664H90.4617V9.06641ZM88.743 9.06641L89.7402 8.99199C89.6966 8.40749 89.5279 7.85868 89.2252 7.36332L88.3719 7.88477L87.5186 8.40622C87.6456 8.61398 87.7243 8.85292 87.7457 9.14083L88.743 9.06641ZM88.3719 7.88477L89.2322 7.37496C88.933 6.87017 88.5193 6.46847 88.0086 6.17668L87.5125 7.04492L87.0164 7.91317C87.2349 8.03804 87.394 8.19628 87.5115 8.39462L88.3719 7.88477ZM87.5125 7.04492L88.027 6.18743C87.4909 5.86577 86.8874 5.72266 86.2527 5.72266V6.72266V7.72266C86.5816 7.72266 86.818 7.79439 86.998 7.90242L87.5125 7.04492ZM86.2527 6.72266V5.72266C85.5679 5.72266 84.9171 5.85989 84.3505 6.19199L84.8562 7.05469L85.362 7.91739C85.5507 7.80678 85.8308 7.72266 86.2527 7.72266V6.72266ZM84.8562 7.05469L84.3552 6.18926C83.8355 6.49012 83.4165 6.90514 83.1087 7.42131L83.9676 7.93359L84.8264 8.44587C84.9612 8.21986 85.1348 8.04896 85.3573 7.92013L84.8562 7.05469ZM83.9676 7.93359L83.106 7.4259C82.8327 7.8897 82.6399 8.39763 82.5216 8.94185L83.4988 9.1543L84.476 9.36673C84.553 9.0125 84.6727 8.70665 84.8291 8.44129L83.9676 7.93359ZM83.4988 9.1543L82.5194 8.95264C82.4143 9.46319 82.3621 9.98328 82.3621 10.5117H83.3621H84.3621C84.3621 10.1157 84.4011 9.73082 84.4783 9.35595L83.4988 9.1543ZM83.3621 10.5117H82.3621V10.9219H83.3621H84.3621V10.5117H83.3621ZM83.3621 10.9219H82.3621C82.3621 11.4503 82.4143 11.9727 82.5188 12.4879L83.4988 12.2891L84.4789 12.0902C84.4011 11.707 84.3621 11.3179 84.3621 10.9219H83.3621ZM83.4988 12.2891L82.5188 12.4879C82.6302 13.0369 82.8205 13.5496 83.0962 14.0175L83.9578 13.5098L84.8194 13.0021C84.6654 12.7408 84.5498 12.4397 84.4789 12.0902L83.4988 12.2891ZM83.9578 13.5098L83.103 14.0287C83.4102 14.5348 83.8248 14.9437 84.3342 15.2475L84.8465 14.3887L85.3588 13.5299C85.126 13.391 84.9481 13.2139 84.8126 12.9908L83.9578 13.5098ZM84.8465 14.3887L84.352 15.2578C84.9177 15.5797 85.5684 15.7109 86.2527 15.7109V14.7109V13.7109C85.8173 13.7109 85.5304 13.6273 85.341 13.5195L84.8465 14.3887ZM94.4594 1H95.4594V0H94.4594V1ZM94.4594 16V17H95.4594V16H94.4594ZM92.643 16H91.643V17H92.643V16ZM92.643 1V0H91.643V1H92.643ZM100.914 5.43359L101.645 6.11643L103.218 4.43359H100.914V5.43359ZM96.3051 10.3652L97.0252 11.0591L97.0305 11.0536L97.0357 11.0481L96.3051 10.3652ZM93.727 13.041L92.7298 13.1169L92.8992 15.3414L94.4471 13.7349L93.727 13.041ZM93.5805 11.1172L92.8134 10.4757L92.5525 10.7876L92.5834 11.1931L93.5805 11.1172ZM95.4262 8.91016L94.6989 8.22377L94.6783 8.24561L94.6591 8.26864L95.4262 8.91016ZM98.7074 5.43359V4.43359H98.2762L97.9802 4.74721L98.7074 5.43359ZM99.2641 16L98.4633 16.599L98.7633 17H99.2641V16ZM95.4945 10.9609L94.6302 10.458L94.2974 11.03L94.6938 11.5599L95.4945 10.9609ZM96.432 9.34961L97.2336 8.75168L96.3287 7.53868L95.5677 8.84672L96.432 9.34961ZM101.393 16V17H103.387L102.195 15.4021L101.393 16ZM94.4594 1H93.4594V16H94.4594H95.4594V1H94.4594ZM94.4594 16V15H92.643V16V17H94.4594V16ZM92.643 16H93.643V1H92.643H91.643V16H92.643ZM92.643 1V2H94.4594V1V0H92.643V1ZM100.914 5.43359L100.184 4.75076L95.5745 9.6824L96.3051 10.3652L97.0357 11.0481L101.645 6.11643L100.914 5.43359ZM96.3051 10.3652L95.585 9.67139L93.0068 12.3472L93.727 13.041L94.4471 13.7349L97.0252 11.0591L96.3051 10.3652ZM93.727 13.041L94.7241 12.9651L94.5776 11.0413L93.5805 11.1172L92.5834 11.1931L92.7298 13.1169L93.727 13.041ZM93.5805 11.1172L94.3476 11.7587L96.1933 9.55168L95.4262 8.91016L94.6591 8.26864L92.8134 10.4757L93.5805 11.1172ZM95.4262 8.91016L96.1534 9.59654L99.4347 6.11998L98.7074 5.43359L97.9802 4.74721L94.6989 8.22377L95.4262 8.91016ZM98.7074 5.43359V6.43359H100.914V5.43359V4.43359H98.7074V5.43359ZM99.2641 16L100.065 15.401L96.2953 10.3619L95.4945 10.9609L94.6938 11.5599L98.4633 16.599L99.2641 16ZM95.4945 10.9609L96.3589 11.4638L97.2964 9.8525L96.432 9.34961L95.5677 8.84672L94.6302 10.458L95.4945 10.9609ZM96.432 9.34961L95.6305 9.94754L100.591 16.5979L101.393 16L102.195 15.4021L97.2336 8.75168L96.432 9.34961ZM101.393 16V15H99.2641V16V17H101.393V16Z" fill="#F8FAFC"/>
</g>
</g>
<defs>
<clipPath id="clip0_170_414">
<rect width="104" height="22" fill="white"/>
</clipPath>
</defs>
</svg>
